<?xml version="1.0" encoding="utf-8"?>
<!-- Generator: Adobe Illustrator 16.0.0, SVG Export Plug-In . SVG Version: 6.00 Build 0)  -->
<!DOCTYPE svg PUBLIC "-//W3C//DTD SVG 1.1//EN" "http://www.w3.org/Graphics/SVG/1.1/DTD/svg11.dtd">
<svg version="1.1" id="Layer_1" xmlns="http://www.w3.org/2000/svg" xmlns:xlink="http://www.w3.org/1999/xlink" x="0px" y="0px"
	 width="511.48px" height="167.312px" viewBox="0 0 511.48 167.312" enable-background="new 0 0 511.48 167.312"
	 xml:space="preserve">
<path d="M511.48,144.699c0,12.486-10.121,22.612-22.604,22.612H22.611C10.125,167.312,0,157.186,0,144.699V22.61
	C0,10.125,10.125,0,22.611,0h466.265c12.483,0,22.604,10.125,22.604,22.61V144.699z"/>
<g id="PLAY_1_">
	<g>
		<defs>
			<path id="SVGID_1_" d="M110.845,73.646L87.781,60.331c0,0-42.016-24.261-44.485-25.687c-2.469-1.427-4.931-0.562-4.931,2.418
				c0,4.965,0,51.8,0,51.8s0,50.615,0,52.851c0,2.234,1.76,3.197,3.904,1.959c2.146-1.239,45.512-26.278,45.512-26.278
				l23.062-13.314c0,0,19.568-11.297,22.17-12.798c2.601-1.503,2.351-3.563,0.155-4.745
				C130.975,85.353,110.845,73.646,110.845,73.646z"/>
		</defs>
		<clipPath id="SVGID_2_">
			<use xlink:href="#SVGID_1_"  overflow="visible"/>
		</clipPath>
		
			<linearGradient id="SVGID_3_" gradientUnits="userSpaceOnUse" x1="75.2922" y1="159.156" x2="75.2922" y2="45.8523" gradientTransform="matrix(1 0 0 -1 -8.3599 191.3667)">
			<stop  offset="0" style="stop-color:#257CB0"/>
			<stop  offset="0.2863" style="stop-color:#4A93B5"/>
			<stop  offset="0.767" style="stop-color:#78BCBB"/>
			<stop  offset="1" style="stop-color:#89CFBD"/>
		</linearGradient>
		<polygon clip-path="url(#SVGID_2_)" fill="url(#SVGID_3_)" points="38.365,32.211 38.365,88.862 38.365,145.514 95.499,88.863 		
			"/>
	</g>
	<g>
		<defs>
			<path id="SVGID_4_" d="M110.845,73.646L87.781,60.331c0,0-42.016-24.261-44.485-25.687c-2.469-1.427-4.931-0.562-4.931,2.418
				c0,4.965,0,51.8,0,51.8s0,50.615,0,52.851c0,2.234,1.76,3.197,3.904,1.959c2.146-1.239,45.512-26.278,45.512-26.278
				l23.062-13.314c0,0,19.568-11.297,22.17-12.798c2.601-1.503,2.351-3.563,0.155-4.745
				C130.975,85.353,110.845,73.646,110.845,73.646z"/>
		</defs>
		<clipPath id="SVGID_5_">
			<use xlink:href="#SVGID_4_"  overflow="visible"/>
		</clipPath>
		
			<linearGradient id="SVGID_6_" gradientUnits="userSpaceOnUse" x1="46.7249" y1="131.0359" x2="119.2053" y2="131.0359" gradientTransform="matrix(1 0 0 -1 -8.3599 191.3667)">
			<stop  offset="0" style="stop-color:#52C1AD"/>
			<stop  offset="1" style="stop-color:#DEE89A"/>
		</linearGradient>
		<polygon clip-path="url(#SVGID_5_)" fill="url(#SVGID_6_)" points="110.845,73.646 87.781,60.331 38.365,31.799 38.365,32.211 
			95.499,88.863 		"/>
	</g>
	<g>
		<defs>
			<path id="SVGID_7_" d="M110.845,73.646L87.781,60.331c0,0-42.016-24.261-44.485-25.687c-2.469-1.427-4.931-0.562-4.931,2.418
				c0,4.965,0,51.8,0,51.8s0,50.615,0,52.851c0,2.234,1.76,3.197,3.904,1.959c2.146-1.239,45.512-26.278,45.512-26.278
				l23.062-13.314c0,0,19.568-11.297,22.17-12.798c2.601-1.503,2.351-3.563,0.155-4.745
				C130.975,85.353,110.845,73.646,110.845,73.646z"/>
		</defs>
		<clipPath id="SVGID_8_">
			<use xlink:href="#SVGID_7_"  overflow="visible"/>
		</clipPath>
		
			<linearGradient id="SVGID_9_" gradientUnits="userSpaceOnUse" x1="82.9651" y1="102.5037" x2="82.9651" y2="45.4412" gradientTransform="matrix(1 0 0 -1 -8.3599 191.3667)">
			<stop  offset="0" style="stop-color:#EC413D"/>
			<stop  offset="0.1668" style="stop-color:#DA4452"/>
			<stop  offset="0.5748" style="stop-color:#B0487A"/>
			<stop  offset="0.8619" style="stop-color:#954A92"/>
			<stop  offset="1" style="stop-color:#8A4A9D"/>
		</linearGradient>
		<polygon clip-path="url(#SVGID_8_)" fill="url(#SVGID_9_)" points="38.365,145.514 38.365,145.926 87.781,117.393 
			110.844,104.078 95.499,88.863 		"/>
	</g>
	<g>
		<defs>
			<path id="SVGID_10_" d="M110.845,73.646L87.781,60.331c0,0-42.016-24.261-44.485-25.687c-2.469-1.427-4.931-0.562-4.931,2.418
				c0,4.965,0,51.8,0,51.8s0,50.615,0,52.851c0,2.234,1.76,3.197,3.904,1.959c2.146-1.239,45.512-26.278,45.512-26.278
				l23.062-13.314c0,0,19.568-11.297,22.17-12.798c2.601-1.503,2.351-3.563,0.155-4.745
				C130.975,85.353,110.845,73.646,110.845,73.646z"/>
		</defs>
		<clipPath id="SVGID_11_">
			<use xlink:href="#SVGID_10_"  overflow="visible"/>
		</clipPath>
		
			<linearGradient id="SVGID_12_" gradientUnits="userSpaceOnUse" x1="124.7102" y1="117.7205" x2="124.7102" y2="87.2888" gradientTransform="matrix(1 0 0 -1 -8.3599 191.3667)">
			<stop  offset="0" style="stop-color:#F58879"/>
			<stop  offset="0.1194" style="stop-color:#F69079"/>
			<stop  offset="0.7128" style="stop-color:#FCB877"/>
			<stop  offset="1" style="stop-color:#FEC874"/>
		</linearGradient>
		<polygon clip-path="url(#SVGID_11_)" fill="url(#SVGID_12_)" points="110.845,73.646 95.499,88.863 110.844,104.078 
			137.201,88.862 		"/>
	</g>
</g>
<g>
	<path fill="#F9F9F9" d="M398.059,111.01c-2.146,0-4.104-0.396-5.877-1.187c-1.773-0.792-3.263-2.01-4.466-3.652h-0.36
		c0.24,1.925,0.36,3.748,0.36,5.472v13.559h-4.988V77.459h4.058l0.69,4.51h0.24c1.283-1.805,2.777-3.105,4.48-3.907
		c1.703-0.803,3.658-1.203,5.861-1.203c4.37,0,7.743,1.494,10.117,4.479c2.375,2.986,3.562,7.177,3.562,12.566
		c0,5.412-1.208,9.615-3.621,12.614C405.701,109.514,402.35,111.01,398.059,111.01z M397.338,81.097
		c-3.367,0-5.803,0.933-7.306,2.796s-2.274,4.831-2.315,8.899v1.111c0,4.631,0.771,7.943,2.315,9.938
		c1.544,1.995,4.021,2.99,7.425,2.99c2.849,0,5.078-1.15,6.692-3.456c1.612-2.304,2.419-5.48,2.419-9.532
		c0-4.106-0.807-7.261-2.419-9.454C402.535,82.193,400.264,81.097,397.338,81.097z"/>
	<path fill="#F9F9F9" d="M423.295,110.409h-4.99v-46.78h4.99V110.409z"/>
	<path fill="#F9F9F9" d="M451.986,110.409l-0.993-4.69h-0.239c-1.645,2.066-3.282,3.466-4.916,4.194
		c-1.634,0.733-3.674,1.098-6.117,1.098c-3.268,0-5.827-0.842-7.683-2.524c-1.854-1.684-2.78-4.077-2.78-7.186
		c0-6.652,5.321-10.141,15.964-10.463l5.594-0.181v-2.044c0-2.586-0.557-4.496-1.67-5.728c-1.111-1.233-2.893-1.85-5.336-1.85
		c-2.747,0-5.854,0.842-9.32,2.525l-1.534-3.818c1.625-0.882,3.402-1.573,5.339-2.074c1.934-0.501,3.871-0.752,5.816-0.752
		c3.928,0,6.839,0.871,8.734,2.615c1.893,1.744,2.84,4.54,2.84,8.389v22.487L451.986,110.409L451.986,110.409z M440.714,106.893
		c3.104,0,5.545-0.853,7.319-2.556c1.772-1.703,2.661-4.089,2.661-7.156v-2.977l-4.993,0.209c-3.968,0.144-6.827,0.757-8.583,1.853
		c-1.753,1.092-2.63,2.791-2.63,5.096c0,1.803,0.545,3.177,1.64,4.117C437.22,106.422,438.746,106.893,440.714,106.893z"/>
	<path fill="#F9F9F9" d="M458.581,77.459h5.351l7.216,18.791c1.583,4.29,2.566,7.386,2.948,9.291h0.24
		c0.261-1.023,0.808-2.771,1.638-5.249c0.832-2.476,3.554-10.085,8.162-22.833h5.354l-14.162,37.521
		c-1.401,3.708-3.041,6.339-4.917,7.895c-1.873,1.552-4.174,2.327-6.896,2.327c-1.524,0-3.027-0.17-4.512-0.51v-3.998
		c1.102,0.24,2.336,0.361,3.698,0.361c3.429,0,5.871-1.925,7.336-5.773l1.833-4.689L458.581,77.459z"/>
</g>
<g>
	<path fill="#F9F9F9" d="M305.609,80.521c1.584,1.311,4.893,4.064,4.893,9.306c0,5.097-2.896,7.514-5.791,9.785
		c-0.896,0.895-1.93,1.863-1.93,3.381c0,1.513,1.033,2.341,1.794,2.962l2.482,1.926c3.032,2.552,5.786,4.896,5.786,9.653
		c0,6.478-6.272,13.023-18.124,13.023c-9.995,0-14.817-4.755-14.817-9.857c0-2.48,1.235-5.993,5.307-8.408
		c4.271-2.619,10.063-2.96,13.163-3.172c-0.968-1.239-2.067-2.549-2.067-4.682c0-1.17,0.346-1.86,0.688-2.691
		c-0.761,0.07-1.518,0.139-2.208,0.139c-7.303,0-11.438-5.444-11.438-10.817c0-3.171,1.448-6.688,4.408-9.235
		c3.931-3.239,8.616-3.792,12.342-3.792h14.194l-4.411,2.481L305.609,80.521L305.609,80.521z M300.715,111.123
		c-0.551-0.072-0.896-0.072-1.583-0.072c-0.619,0-4.347,0.142-7.237,1.108c-1.517,0.547-5.929,2.201-5.929,7.097
		c0,4.892,4.759,8.411,12.134,8.411c6.611,0,10.131-3.177,10.131-7.445C308.229,116.699,305.954,114.846,300.715,111.123z
		 M302.715,98.026c1.583-1.587,1.72-3.79,1.72-5.032c0-4.961-2.962-12.68-8.682-12.68c-1.794,0-3.722,0.895-4.824,2.274
		c-1.171,1.447-1.519,3.307-1.519,5.101c0,4.617,2.688,12.268,8.618,12.268C299.751,99.957,301.607,99.13,302.715,98.026z"/>
	<path fill="#F9F9F9" d="M262.221,110.02c-10.939,0-16.788-8.533-16.788-16.241c0-9.015,7.36-16.718,17.823-16.718
		c10.11,0,16.441,7.91,16.441,16.237C279.698,101.415,273.439,110.02,262.221,110.02z M270.82,104.447
		c1.654-2.204,2.067-4.955,2.067-7.641c0-6.058-2.891-17.615-11.424-17.615c-2.27,0-4.54,0.896-6.19,2.344
		c-2.685,2.405-3.168,5.434-3.168,8.396c0,6.807,3.372,18.02,11.7,18.02C266.488,107.951,269.241,106.646,270.82,104.447z"/>
	<path fill="#F9F9F9" d="M224.926,110.02c-10.94,0-16.791-8.533-16.791-16.241c0-9.015,7.365-16.718,17.824-16.718
		c10.113,0,16.443,7.91,16.443,16.237C242.402,101.415,236.143,110.02,224.926,110.02z M233.527,104.447
		c1.651-2.204,2.064-4.955,2.064-7.641c0-6.058-2.892-17.615-11.425-17.615c-2.269,0-4.541,0.896-6.19,2.344
		c-2.685,2.405-3.165,5.434-3.165,8.396c0,6.807,3.37,18.02,11.699,18.02C229.194,107.951,231.945,106.646,233.527,104.447z"/>
	<path fill="#F9F9F9" d="M202.879,108.941l-9.894,2.283c-4.015,0.624-7.61,1.173-11.413,1.173
		c-19.096,0-26.357-14.044-26.357-25.044c0-13.419,10.308-25.868,27.949-25.868c3.737,0,7.332,0.552,10.582,1.452
		c5.189,1.453,7.609,3.25,9.133,4.289l-5.743,5.465l-2.421,0.551l1.73-2.768c-2.353-2.281-6.646-6.5-14.805-6.5
		c-10.932,0-19.164,8.305-19.164,20.409c0,13.002,9.41,25.247,24.487,25.247c4.433,0,6.71-0.897,8.787-1.729V96.766l-10.444,0.553
		l5.531-2.979h14.667l-1.797,1.729c-0.487,0.417-0.555,0.557-0.692,1.104c-0.072,0.624-0.138,2.633-0.138,3.323L202.879,108.941
		L202.879,108.941z"/>
	<path fill="#F9F9F9" d="M327.475,106.949c-2.284-0.208-2.762-0.621-2.762-3.322v-0.762V64.473c0.014-0.149,0.022-0.303,0.037-0.446
		c0.278-2.42,0.97-2.835,3.116-4.082h-9.896l-5.19,2.491h5.289v0.03l-0.004-0.024v40.424v2.285c0,1.381-0.272,1.591-1.866,3.664
		h12.246l2.561-1.519C329.83,107.154,328.652,107.087,327.475,106.949z"/>
	<path fill="#F9F9F9" d="M355.624,107.585c-0.753,0.413-1.509,0.896-2.262,1.237c-2.271,1.03-4.605,1.306-6.671,1.306
		c-2.193,0-5.631-0.142-9.138-2.681c-4.874-3.438-7.004-9.346-7.004-14.497c0-10.647,8.655-15.868,15.731-15.868
		c2.475,0,5.02,0.617,7.08,1.925c3.433,2.264,4.325,5.218,4.803,6.799l-16.141,6.528l-5.291,0.412
		c1.715,8.726,7.623,13.805,14.152,13.805c3.503,0,6.046-1.233,8.381-2.399L355.624,107.585z M349.17,87.109
		c1.303-0.479,1.989-0.894,1.989-1.854c0-2.746-3.09-5.907-6.803-5.907c-2.751,0-7.9,2.131-7.9,9.549
		c0,1.168,0.139,2.403,0.209,3.645L349.17,87.109z"/>
	<g>
		<path fill="#F9F9F9" d="M362.257,77.552v4.533h-0.552v-4.533h-1.5v-0.47h3.551v0.47H362.257z"/>
		<path fill="#F9F9F9" d="M368.436,82.085V77.51h-0.025l-1.396,4.575h-0.431l-1.408-4.575h-0.019v4.575h-0.5v-5.003h0.857
			l1.273,4.044h0.019l1.255-4.044h0.869v5.003H368.436z"/>
	</g>
</g>
<g>
	<path fill="#FFFFFF" d="M169.083,46.7c-0.668,0.322-2.253,0.718-4.259,0.718c-5.771,0-8.742-3.616-8.742-8.371
		c0-5.696,4.062-8.841,9.114-8.841c1.956,0,3.442,0.372,4.111,0.743l-0.792,2.972c-0.743-0.322-1.808-0.619-3.17-0.619
		c-2.972,0-5.3,1.808-5.3,5.523c0,3.343,1.981,5.448,5.325,5.448c1.164,0,2.402-0.223,3.17-0.545L169.083,46.7z"/>
	<path fill="#FFFFFF" d="M186.119,38.627c0,5.498-3.294,8.792-8.197,8.792c-4.928,0-7.851-3.74-7.851-8.519
		c0-5.003,3.22-8.742,8.123-8.742C183.321,30.157,186.119,33.995,186.119,38.627z M174.058,38.825c0,3.293,1.535,5.597,4.062,5.597
		c2.551,0,4.012-2.427,4.012-5.671c0-3.021-1.412-5.597-4.012-5.597C175.544,33.154,174.058,35.58,174.058,38.825z"/>
	<path fill="#FFFFFF" d="M202.709,40.757c-0.074-2.006-0.148-4.433-0.148-6.86h-0.05c-0.544,2.13-1.238,4.507-1.882,6.464
		l-2.031,6.513h-2.947l-1.783-6.439c-0.545-1.981-1.09-4.358-1.511-6.538h-0.05c-0.074,2.254-0.173,4.83-0.272,6.91l-0.322,6.34
		h-3.492l1.065-16.691h5.027l1.635,5.572c0.545,1.932,1.04,4.012,1.412,5.969h0.099c0.446-1.932,1.015-4.136,1.585-5.993
		l1.758-5.547h4.953l0.891,16.691h-3.665L202.709,40.757z"/>
	<path fill="#FFFFFF" d="M223.657,40.757c-0.074-2.006-0.148-4.433-0.148-6.86h-0.05c-0.544,2.13-1.238,4.507-1.882,6.464
		l-2.031,6.513h-2.947l-1.783-6.439c-0.545-1.981-1.09-4.358-1.511-6.538h-0.05c-0.074,2.254-0.173,4.83-0.272,6.91l-0.322,6.34
		h-3.492l1.065-16.691h5.027l1.635,5.572c0.545,1.932,1.04,4.012,1.412,5.969h0.099c0.446-1.932,1.015-4.136,1.585-5.993
		l1.758-5.547h4.953l0.891,16.691h-3.665L223.657,40.757z"/>
	<path fill="#FFFFFF" d="M234.278,30.454v16.691h-3.764V30.454H234.278z"/>
	<path fill="#FFFFFF" d="M237.545,47.146V30.454h4.408l3.467,6.117c0.991,1.758,1.957,3.839,2.724,5.721h0.049
		c-0.223-2.204-0.297-4.458-0.297-6.984v-4.854h3.467v16.691h-3.962l-3.566-6.439c-0.991-1.783-2.105-3.938-2.897-5.894h-0.099
		c0.124,2.229,0.173,4.582,0.173,7.306v5.027H237.545z"/>
	<path fill="#FFFFFF" d="M268.573,46.378c-1.164,0.396-3.368,0.941-5.572,0.941c-3.046,0-5.25-0.768-6.786-2.229
		c-1.51-1.461-2.353-3.64-2.353-6.092c0.025-5.547,4.062-8.717,9.535-8.717c2.154,0,3.813,0.421,4.631,0.792l-0.792,3.046
		c-0.917-0.421-2.031-0.718-3.863-0.718c-3.146,0-5.548,1.758-5.548,5.399c0,3.467,2.18,5.473,5.275,5.473
		c0.842,0,1.535-0.099,1.832-0.223v-3.517h-2.575v-2.947h6.216V46.378z"/>
	<path fill="#FFFFFF" d="M276.643,43.258c0.99,0.52,2.575,1.04,4.185,1.04c1.733,0,2.65-0.718,2.65-1.808
		c0-1.04-0.793-1.635-2.799-2.328c-2.773-0.99-4.606-2.526-4.606-4.953c0-2.848,2.402-5.003,6.315-5.003
		c1.907,0,3.269,0.372,4.26,0.842l-0.843,3.021c-0.644-0.322-1.856-0.793-3.467-0.793c-1.635,0-2.427,0.768-2.427,1.61
		c0,1.065,0.916,1.536,3.096,2.353c2.947,1.089,4.309,2.625,4.309,4.978c0,2.798-2.129,5.176-6.711,5.176
		c-1.907,0-3.789-0.52-4.73-1.04L276.643,43.258z"/>
	<path fill="#FFFFFF" d="M305.17,38.627c0,5.498-3.293,8.792-8.197,8.792c-4.928,0-7.85-3.74-7.85-8.519
		c0-5.003,3.219-8.742,8.122-8.742C302.372,30.157,305.17,33.995,305.17,38.627z M293.109,38.825c0,3.293,1.536,5.597,4.062,5.597
		c2.551,0,4.013-2.427,4.013-5.671c0-3.021-1.412-5.597-4.013-5.597C294.595,33.154,293.109,35.58,293.109,38.825z"/>
	<path fill="#FFFFFF" d="M322.924,38.627c0,5.498-3.293,8.792-8.197,8.792c-4.928,0-7.85-3.74-7.85-8.519
		c0-5.003,3.219-8.742,8.122-8.742C320.126,30.157,322.924,33.995,322.924,38.627z M310.863,38.825c0,3.293,1.536,5.597,4.062,5.597
		c2.551,0,4.013-2.427,4.013-5.671c0-3.021-1.412-5.597-4.013-5.597C312.349,33.154,310.863,35.58,310.863,38.825z"/>
	<path fill="#FFFFFF" d="M325.398,47.146V30.454h4.408l3.467,6.117c0.99,1.758,1.956,3.839,2.725,5.721h0.049
		c-0.223-2.204-0.297-4.458-0.297-6.984v-4.854h3.467v16.691h-3.962l-3.566-6.439c-0.99-1.783-2.105-3.938-2.897-5.894h-0.099
		c0.123,2.229,0.173,4.582,0.173,7.306v5.027H325.398z"/>
	<path fill="#FFFFFF" d="M362.764,38.627c0,5.498-3.293,8.792-8.196,8.792c-4.929,0-7.851-3.74-7.851-8.519
		c0-5.003,3.219-8.742,8.122-8.742C359.967,30.157,362.764,33.995,362.764,38.627z M350.704,38.825c0,3.293,1.536,5.597,4.062,5.597
		c2.551,0,4.013-2.427,4.013-5.671c0-3.021-1.412-5.597-4.013-5.597C352.19,33.154,350.704,35.58,350.704,38.825z"/>
	<path fill="#FFFFFF" d="M365.239,47.146V30.454h4.408l3.467,6.117c0.99,1.758,1.956,3.839,2.725,5.721h0.049
		c-0.223-2.204-0.297-4.458-0.297-6.984v-4.854h3.467v16.691h-3.962l-3.566-6.439c-0.99-1.783-2.105-3.938-2.897-5.894h-0.099
		c0.123,2.229,0.173,4.582,0.173,7.306v5.027H365.239z"/>
</g>
</svg>
