<?xml version="1.0" encoding="utf-8"?>
<!-- Generator: Adobe Illustrator 16.0.0, SVG Export Plug-In . SVG Version: 6.00 Build 0)  -->
<!DOCTYPE svg PUBLIC "-//W3C//DTD SVG 1.1//EN" "http://www.w3.org/Graphics/SVG/1.1/DTD/svg11.dtd">
<svg version="1.1" xmlns="http://www.w3.org/2000/svg" xmlns:xlink="http://www.w3.org/1999/xlink" x="0px" y="0px"
	 width="511.48px" height="167.312px" viewBox="0 0 511.48 167.312" enable-background="new 0 0 511.48 167.312"
	 xml:space="preserve">
<g id="Layer_1">
</g>
<g id="Layer_2">
	<g>
		<path d="M511.48,144.699c0,12.487-10.12,22.612-22.604,22.612H22.611c-12.486,0-22.61-10.125-22.61-22.612V22.609
			C0.001,10.125,10.125,0,22.611,0h466.265c12.484,0,22.604,10.125,22.604,22.609V144.699z"/>
		<g>
			<path fill="#FFFFFF" d="M130.934,111.131c-2.762,6.122-4.084,8.854-7.639,14.264c-4.963,7.555-11.955,16.961-20.619,17.04
				c-7.701,0.071-9.678-5.012-20.127-4.954c-10.449,0.057-12.632,5.043-20.334,4.973c-8.664-0.08-15.291-8.574-20.252-16.127
				c-13.875-21.121-15.325-45.908-6.77-59.085c6.082-9.365,15.674-14.847,24.695-14.847c9.184,0,14.957,5.037,22.551,5.037
				c7.365,0,11.855-5.045,22.473-5.045c8.025,0,16.529,4.369,22.59,11.928C107.648,75.193,110.873,103.551,130.934,111.131z"/>
			<g>
				<path fill="#FFFFFF" d="M96.857,43.949c3.855-4.951,6.787-11.945,5.725-19.092c-6.301,0.434-13.674,4.443-17.979,9.67
					c-3.906,4.746-7.131,11.784-5.875,18.623C85.607,53.363,92.725,49.255,96.857,43.949z"/>
			</g>
		</g>
		<g>
			<g>
				<path fill="#FFFFFF" d="M173.202,66.922l-19.875,58.504h9.102l5.934-17.964h19.244l6.102,17.964h9.354l-19.961-58.504H173.202z
					 M177.918,76.541c0.671,2.611,1.396,5.323,2.326,8.254l5.356,15.512h-15.244l5.281-15.613
					C176.442,82.162,177.206,79.428,177.918,76.541z"/>
				<path fill="#FFFFFF" d="M228.78,82.088c-6.029,0-10.857,2.327-14.072,6.751l-0.353-5.819h-8.097l0.049,0.744
					c0.238,3.625,0.338,7.615,0.338,13.344v45.094h8.852v-21.044c2.746,3.286,7.131,5.199,12.1,5.199
					c5.174,0,9.939-2.026,13.412-5.702c3.878-4.098,5.923-9.988,5.923-17.025c0-6.219-1.776-11.596-5.143-15.546
					C238.492,84.217,233.874,82.088,228.78,82.088z M226.575,89.416c7.891,0,11.422,7.31,11.422,14.553
					c0,9.342-4.506,15.146-11.758,15.146c-4.951,0-9.234-3.37-10.428-8.214c-0.205-0.75-0.314-1.744-0.314-2.865v-7.118
					c0-0.645,0.145-1.427,0.281-2.185c0.044-0.242,0.092-0.484,0.127-0.719C217.226,92.949,221.607,89.416,226.575,89.416z"/>
				<path fill="#FFFFFF" d="M274.36,82.088c-6.027,0-10.855,2.327-14.073,6.751l-0.353-5.819h-8.094l0.045,0.744
					c0.24,3.629,0.342,7.615,0.342,13.344v45.094h8.852v-21.044c2.746,3.286,7.128,5.199,12.096,5.199
					c5.174,0,9.94-2.026,13.419-5.702c3.871-4.098,5.919-9.988,5.919-17.025c0-6.219-1.779-11.596-5.146-15.546
					C284.072,84.217,279.454,82.088,274.36,82.088z M272.157,89.416c7.887,0,11.419,7.31,11.419,14.553
					c0,9.342-4.509,15.146-11.757,15.146c-4.949,0-9.236-3.37-10.428-8.214c-0.205-0.75-0.312-1.744-0.312-2.865v-7.118
					c0-0.648,0.143-1.434,0.282-2.192c0.044-0.238,0.088-0.477,0.128-0.711C262.805,92.949,267.188,89.416,272.157,89.416z"/>
				<path fill="#FFFFFF" d="M331.463,91.711c-8.261-3.199-10.907-5.715-10.907-10.363c0-3.914,3.109-7.861,10.061-7.861
					c5.734,0,9.402,1.994,10.391,2.608l0.75,0.463l2.498-7.387l-0.494-0.289c-1.482-0.869-5.709-2.892-12.89-2.892
					c-11.288,0-19.172,6.664-19.172,16.202c0,7.692,4.937,13.069,15.536,16.923c7.512,2.808,10.308,5.684,10.308,10.614
					c0,5.581-4.313,9.044-11.251,9.044c-4.519,0-9.169-1.317-12.758-3.617l-0.768-0.492l-2.376,7.558l0.437,0.289
					c3.342,2.231,9.631,3.846,14.959,3.846c15.213,0,20.607-9.276,20.607-17.22C346.394,100.947,342.069,95.896,331.463,91.711z"/>
				<path fill="#FFFFFF" d="M362.327,72.94l-8.682,2.726v7.354h-6.355v7.074h6.355v21.67c0,5.238,1.002,8.91,3.064,11.23
					c1.979,2.168,5.02,3.362,8.564,3.362c3.346,0,5.723-0.661,6.842-1.057l0.496-0.176l-0.424-7.087l-0.85,0.261
					c-1.119,0.344-2.268,0.476-4.117,0.476c-3.43,0-4.895-2.17-4.895-7.265V90.094h10.678V83.02h-10.678V72.94z"/>
				<path fill="#FFFFFF" d="M394.94,82.088c-12.385,0-21.033,9.244-21.033,22.473c0,12.834,8.369,21.796,20.355,21.796h0.082
					c10.133,0,21.033-7.059,21.033-22.558c0-6.302-1.949-11.715-5.641-15.656C406.024,84.184,400.905,82.088,394.94,82.088z
					 M394.685,89.076c7.963,0,11.588,7.763,11.588,14.979c0,8.873-4.947,15.313-11.756,15.313h-0.086
					c-6.713,0-11.586-6.333-11.586-15.058C382.845,96.729,386.507,89.076,394.685,89.076z"/>
				<path fill="#FFFFFF" d="M442.489,82.499l-0.531-0.135c-0.779-0.194-1.416-0.276-2.201-0.276c-4.631,0-8.785,2.727-11.098,7.126
					l-0.26-6.194h-7.943l0.051,0.744c0.236,3.504,0.334,7.438,0.334,12.746l-0.082,28.916h8.852v-22.559
					c0-1.229,0.084-2.39,0.244-3.432c0.998-5.418,4.654-8.92,9.312-8.92c0.906,0,1.619,0.074,2.375,0.148l0.947,0.098V82.499z"/>
				<path fill="#FFFFFF" d="M462.39,82.004c-11.783,0-20.014,9.415-20.014,22.896c0,12.981,8.188,21.372,20.861,21.372
					c6.664,0,11.301-1.463,14.014-2.688l0.533-0.24l-1.701-6.596l-0.738,0.298c-2.412,0.981-5.619,1.983-11.09,1.983
					c-3.846,0-12.715-1.269-13.258-12.834l28.57,0.086l0.115-0.565c0.18-0.899,0.266-2.111,0.266-3.694
					C479.948,92.787,475.351,82.004,462.39,82.004z M461.8,88.738c2.695,0,4.883,0.834,6.498,2.479
					c2.547,2.592,2.992,6.408,3.049,8.24h-20.188C451.981,94.346,455.179,88.738,461.8,88.738z"/>
			</g>
			<g>
				<path fill="#FFFFFF" d="M153.327,26.957c2.466-0.328,5.342-0.574,8.49-0.574c5.707,0,9.77,1.15,12.463,3.41
					c2.784,2.259,4.383,5.504,4.383,9.982c0,4.519-1.599,8.215-4.428,10.763c-2.922,2.588-7.67,3.985-13.649,3.985
					c-2.876,0-5.204-0.082-7.259-0.329V26.957z M157.345,51.483c1.004,0.164,2.465,0.164,4.018,0.164
					c8.49,0.04,13.1-4.272,13.1-11.749c0.046-6.614-4.062-10.682-12.461-10.682c-2.053,0-3.606,0.166-4.656,0.369V51.483z"/>
				<path fill="#FFFFFF" d="M192.899,54.729c-5.936,0-10.59-3.943-10.59-10.229c0-6.655,4.884-10.559,10.954-10.559
					c6.347,0,10.636,4.148,10.636,10.188c0,7.395-5.705,10.599-10.953,10.599H192.899z M193.036,52.017
					c3.834,0,6.711-3.245,6.711-7.765c0-3.368-1.872-7.6-6.619-7.6c-4.703,0-6.757,3.944-6.757,7.724
					c0,4.354,2.739,7.641,6.619,7.641H193.036z"/>
				<path fill="#FFFFFF" d="M210.255,34.393l2.967,10.066c0.593,2.218,1.188,4.312,1.598,6.367h0.137
					c0.502-2.014,1.232-4.149,1.963-6.326l3.606-10.107h3.379l3.424,9.941c0.82,2.343,1.46,4.479,1.962,6.492h0.137
					c0.365-2.014,0.96-4.108,1.689-6.45l3.148-9.983h3.973l-7.121,19.884h-3.652l-3.377-9.489c-0.775-2.26-1.416-4.231-1.965-6.573
					h-0.09c-0.548,2.383-1.232,4.478-2.01,6.614l-3.56,9.448h-3.651l-6.666-19.884H210.255z"/>
				<path fill="#FFFFFF" d="M242.257,39.775c0-2.096-0.046-3.738-0.184-5.383h3.562l0.228,3.247h0.092
					c1.096-1.85,3.651-3.698,7.303-3.698c3.059,0,7.806,1.643,7.806,8.463v11.872h-4.015V42.814c0-3.204-1.326-5.914-5.114-5.914
					c-2.602,0-4.657,1.684-5.386,3.696c-0.183,0.452-0.274,1.108-0.274,1.685v11.995h-4.017V39.775z"/>
				<path fill="#FFFFFF" d="M267.591,25.109h4.018v29.167h-4.018V25.109z"/>
				<path fill="#FFFFFF" d="M287.267,54.729c-5.934,0-10.59-3.943-10.59-10.229c0-6.655,4.882-10.559,10.955-10.559
					c6.344,0,10.635,4.148,10.635,10.188c0,7.395-5.706,10.599-10.955,10.599H287.267z M287.401,52.017
					c3.835,0,6.712-3.245,6.712-7.765c0-3.368-1.872-7.6-6.618-7.6c-4.703,0-6.758,3.944-6.758,7.724
					c0,4.354,2.739,7.641,6.62,7.641H287.401z"/>
				<path fill="#FFFFFF" d="M318.901,49.512c0,1.725,0.092,3.408,0.32,4.765h-3.607l-0.365-2.505h-0.135
					c-1.188,1.561-3.608,2.957-6.756,2.957c-4.473,0-6.756-2.834-6.756-5.711c0-4.806,4.746-7.436,13.281-7.395v-0.41
					c0-1.643-0.5-4.642-5.02-4.601c-2.102,0-4.245,0.532-5.797,1.478l-0.914-2.423c1.826-1.026,4.519-1.726,7.305-1.726
					c6.801,0,8.443,4.148,8.443,8.135V49.512z M314.978,44.13c-4.383-0.082-9.358,0.616-9.358,4.478
					c0,2.383,1.734,3.451,3.743,3.451c2.921,0,4.793-1.644,5.431-3.328c0.14-0.369,0.185-0.781,0.185-1.15V44.13z"/>
				<path fill="#FFFFFF" d="M344.419,25.109v24.031c0,1.767,0.049,3.779,0.184,5.136h-3.605l-0.182-3.45h-0.092
					c-1.232,2.218-3.881,3.902-7.486,3.902c-5.342,0-9.496-4.066-9.496-10.106c-0.046-6.655,4.566-10.681,9.905-10.681
					c3.426,0,5.708,1.439,6.667,2.999h0.09V25.109H344.419z M340.403,42.486c0-0.493-0.045-1.068-0.184-1.561
					c-0.592-2.26-2.783-4.149-5.796-4.149c-4.154,0-6.62,3.286-6.62,7.642c0,4.066,2.238,7.393,6.528,7.393
					c2.694,0,5.159-1.643,5.888-4.312c0.139-0.492,0.184-0.986,0.184-1.561V42.486z"/>
				<path fill="#FFFFFF" d="M369.755,54.729c-5.934,0-10.59-3.943-10.59-10.229c0-6.655,4.887-10.559,10.955-10.559
					c6.348,0,10.637,4.148,10.637,10.188c0,7.395-5.707,10.599-10.953,10.599H369.755z M369.894,52.017
					c3.834,0,6.709-3.245,6.709-7.765c0-3.368-1.869-7.6-6.617-7.6c-4.703,0-6.756,3.944-6.756,7.724
					c0,4.354,2.738,7.641,6.617,7.641H369.894z"/>
				<path fill="#FFFFFF" d="M385.827,39.775c0-2.096-0.047-3.738-0.184-5.383h3.561l0.23,3.247h0.09
					c1.096-1.85,3.65-3.698,7.303-3.698c3.059,0,7.807,1.643,7.807,8.463v11.872h-4.018V42.814c0-3.204-1.322-5.914-5.113-5.914
					c-2.6,0-4.656,1.684-5.387,3.696c-0.182,0.452-0.273,1.108-0.273,1.685v11.995h-4.016V39.775z"/>
				<path fill="#FFFFFF" d="M425.679,29.629v4.764h5.75v2.752h-5.75v10.724c0,2.464,0.777,3.861,3.014,3.861
					c1.094,0,1.734-0.082,2.328-0.246l0.182,2.752c-0.775,0.246-2.008,0.493-3.561,0.493c-1.871,0-3.379-0.575-4.338-1.52
					c-1.096-1.109-1.551-2.877-1.551-5.219V37.145h-3.424v-2.752h3.424v-3.655L425.679,29.629z"/>
				<path fill="#FFFFFF" d="M435.95,25.109h4.016v12.406h0.094c0.637-1.027,1.641-1.972,2.877-2.547
					c1.186-0.656,2.598-1.027,4.107-1.027c2.965,0,7.713,1.643,7.713,8.504v11.831h-4.016v-11.42c0-3.246-1.324-5.916-5.113-5.916
					c-2.602,0-4.609,1.644-5.387,3.615c-0.229,0.493-0.275,1.026-0.275,1.726v11.995h-4.016V25.109z"/>
				<path fill="#FFFFFF" d="M463.567,44.951c0.094,4.889,3.518,6.902,7.533,6.902c2.875,0,4.656-0.453,6.119-0.987l0.73,2.547
					c-1.418,0.575-3.883,1.274-7.396,1.274c-6.758,0-10.865-4.068-10.865-10.023c0-6.039,3.973-10.764,10.406-10.764
					c7.215,0,9.084,5.71,9.084,9.367c0,0.739-0.043,1.314-0.135,1.725L463.567,44.951z M475.302,42.363
					c0.043-2.26-1.051-5.875-5.525-5.875c-4.109,0-5.844,3.369-6.162,5.875H475.302z"/>
			</g>
		</g>
	</g>
</g>
</svg>
