<?xml version="1.0" encoding="utf-8"?>
<!-- Generator: Adobe Illustrator 16.0.0, SVG Export Plug-In . SVG Version: 6.00 Build 0)  -->
<!DOCTYPE svg PUBLIC "-//W3C//DTD SVG 1.1//EN" "http://www.w3.org/Graphics/SVG/1.1/DTD/svg11.dtd">
<svg version="1.1" id="Layer_1" xmlns="http://www.w3.org/2000/svg" xmlns:xlink="http://www.w3.org/1999/xlink" x="0px" y="0px"
	 width="511.48px" height="167.312px" viewBox="0 0 511.48 167.312" enable-background="new 0 0 511.48 167.312"
	 xml:space="preserve">
<path d="M511.48,144.699c0,12.487-10.12,22.612-22.604,22.612H22.611c-12.486,0-22.61-10.125-22.61-22.612V22.609
	C0.001,10.125,10.125,0,22.611,0h466.266c12.483,0,22.604,10.125,22.604,22.609V144.699z"/>
<g>
	<path fill="#FFFFFF" d="M138.668,113.733c-2.975,6.591-4.397,9.532-8.225,15.356c-5.343,8.133-12.87,18.259-22.197,18.344
		c-8.289,0.076-10.418-5.396-21.667-5.333c-11.248,0.062-13.599,5.43-21.891,5.354c-9.327-0.086-16.461-9.23-21.802-17.361
		C27.95,107.355,26.39,80.671,35.599,66.486c6.547-10.082,16.874-15.982,26.585-15.982c9.886,0,16.102,5.422,24.277,5.422
		c7.929,0,12.761-5.431,24.192-5.431c8.64,0,17.794,4.703,24.318,12.84C113.6,75.046,117.071,105.573,138.668,113.733z"/>
	<g>
		<path fill="#FFFFFF" d="M101.983,41.41c4.15-5.33,7.307-12.859,6.163-20.553c-6.783,0.467-14.72,4.782-19.354,10.41
			c-4.205,5.109-7.677,12.687-6.325,20.048C89.872,51.545,97.535,47.122,101.983,41.41z"/>
	</g>
</g>
<g>
	<path fill="#FFFFFF" d="M173.202,71.922l-19.875,58.504h9.103l5.934-17.964h19.244l6.102,17.964h9.354l-19.961-58.504H173.202z
		 M177.918,81.541c0.671,2.611,1.396,5.323,2.326,8.254l5.356,15.513h-15.244l5.281-15.613
		C176.442,87.162,177.206,84.427,177.918,81.541z"/>
	<path fill="#FFFFFF" d="M228.78,87.088c-6.029,0-10.857,2.327-14.072,6.751l-0.353-5.818h-8.098l0.05,0.744
		c0.237,3.625,0.338,7.614,0.338,13.344v45.094h8.852v-21.044c2.746,3.286,7.131,5.199,12.101,5.199
		c5.174,0,9.938-2.026,13.411-5.702c3.879-4.098,5.924-9.988,5.924-17.025c0-6.219-1.776-11.596-5.144-15.546
		C238.492,89.217,233.874,87.088,228.78,87.088z M226.575,94.416c7.891,0,11.422,7.311,11.422,14.553
		c0,9.343-4.506,15.146-11.758,15.146c-4.951,0-9.234-3.37-10.428-8.214c-0.205-0.75-0.314-1.744-0.314-2.865v-7.118
		c0-0.645,0.146-1.427,0.281-2.185c0.044-0.242,0.092-0.484,0.127-0.719C217.226,97.949,221.607,94.416,226.575,94.416z"/>
	<path fill="#FFFFFF" d="M274.36,87.088c-6.027,0-10.855,2.327-14.073,6.751l-0.353-5.818h-8.095l0.045,0.744
		c0.24,3.629,0.343,7.614,0.343,13.344v45.094h8.852v-21.044c2.746,3.286,7.128,5.199,12.096,5.199c5.175,0,9.94-2.026,13.42-5.702
		c3.87-4.098,5.919-9.988,5.919-17.025c0-6.219-1.779-11.596-5.146-15.546C284.072,89.217,279.454,87.088,274.36,87.088z
		 M272.157,94.416c7.887,0,11.419,7.311,11.419,14.553c0,9.343-4.509,15.146-11.757,15.146c-4.949,0-9.236-3.37-10.428-8.214
		c-0.205-0.75-0.312-1.744-0.312-2.865v-7.118c0-0.647,0.144-1.434,0.282-2.191c0.044-0.238,0.088-0.478,0.128-0.711
		C262.805,97.949,267.188,94.416,272.157,94.416z"/>
	<path fill="#FFFFFF" d="M331.464,96.711c-8.262-3.198-10.907-5.715-10.907-10.362c0-3.914,3.108-7.861,10.061-7.861
		c5.734,0,9.402,1.994,10.392,2.607l0.75,0.464l2.498-7.388l-0.494-0.289c-1.482-0.868-5.709-2.892-12.891-2.892
		c-11.287,0-19.172,6.664-19.172,16.202c0,7.691,4.938,13.068,15.536,16.923c7.512,2.808,10.309,5.684,10.309,10.614
		c0,5.581-4.313,9.044-11.251,9.044c-4.52,0-9.17-1.317-12.759-3.617l-0.768-0.492l-2.376,7.559l0.437,0.288
		c3.343,2.231,9.632,3.847,14.959,3.847c15.214,0,20.607-9.276,20.607-17.22C346.394,105.947,342.069,100.896,331.464,96.711z"/>
	<path fill="#FFFFFF" d="M362.327,77.94l-8.682,2.726v7.354h-6.355v7.073h6.355v21.671c0,5.237,1.002,8.909,3.064,11.229
		c1.979,2.168,5.02,3.362,8.563,3.362c3.346,0,5.723-0.661,6.842-1.058l0.496-0.176l-0.424-7.087l-0.85,0.261
		c-1.119,0.345-2.269,0.477-4.117,0.477c-3.431,0-4.896-2.17-4.896-7.266V95.094h10.679V88.02h-10.679V77.94H362.327z"/>
	<path fill="#FFFFFF" d="M394.94,87.088c-12.385,0-21.033,9.244-21.033,22.474c0,12.834,8.369,21.796,20.355,21.796h0.082
		c10.133,0,21.033-7.06,21.033-22.559c0-6.302-1.949-11.715-5.642-15.655C406.024,89.184,400.905,87.088,394.94,87.088z
		 M394.685,94.076c7.963,0,11.588,7.763,11.588,14.979c0,8.872-4.947,15.312-11.756,15.312h-0.086
		c-6.713,0-11.586-6.333-11.586-15.058C382.845,101.729,386.508,94.076,394.685,94.076z"/>
	<path fill="#FFFFFF" d="M442.489,87.499l-0.531-0.135c-0.778-0.194-1.415-0.276-2.2-0.276c-4.631,0-8.785,2.728-11.099,7.126
		l-0.26-6.193h-7.943l0.052,0.744c0.235,3.504,0.334,7.438,0.334,12.745l-0.082,28.916h8.852v-22.559
		c0-1.229,0.084-2.39,0.244-3.432c0.998-5.418,4.654-8.92,9.312-8.92c0.905,0,1.618,0.073,2.375,0.147l0.946,0.098V87.499z"/>
	<path fill="#FFFFFF" d="M462.39,87.004c-11.783,0-20.014,9.415-20.014,22.896c0,12.98,8.188,21.372,20.86,21.372
		c6.664,0,11.301-1.463,14.015-2.688l0.532-0.24l-1.701-6.596l-0.737,0.298c-2.412,0.981-5.619,1.983-11.09,1.983
		c-3.847,0-12.716-1.27-13.259-12.834l28.57,0.086l0.115-0.565c0.18-0.898,0.266-2.11,0.266-3.693
		C479.948,97.787,475.351,87.004,462.39,87.004z M461.801,93.738c2.694,0,4.883,0.834,6.498,2.479
		c2.547,2.593,2.991,6.408,3.049,8.24h-20.188C451.981,99.346,455.179,93.738,461.801,93.738z"/>
</g>
<g>
	<path fill="#FFFFFF" d="M178.43,53.706c-1.369,0.707-4.238,1.413-7.858,1.413c-8.387,0-14.655-5.297-14.655-15.097
		c0-9.359,6.312-15.627,15.539-15.627c3.664,0,6.047,0.794,7.063,1.324l-0.971,3.134c-1.413-0.707-3.487-1.236-5.959-1.236
		c-6.975,0-11.61,4.458-11.61,12.272c0,7.328,4.194,11.963,11.389,11.963c2.384,0,4.768-0.485,6.312-1.236L178.43,53.706z"/>
	<path fill="#FFFFFF" d="M202.001,43.774c0,7.902-5.518,11.345-10.639,11.345c-5.739,0-10.242-4.238-10.242-10.992
		c0-7.107,4.724-11.301,10.595-11.301C197.851,32.826,202.001,37.284,202.001,43.774z M185.094,43.994
		c0,4.679,2.648,8.211,6.445,8.211c3.708,0,6.489-3.487,6.489-8.299c0-3.62-1.81-8.167-6.401-8.167
		C187.08,35.74,185.094,39.977,185.094,43.994z"/>
	<path fill="#FFFFFF" d="M226.234,43.774c0,7.902-5.518,11.345-10.639,11.345c-5.739,0-10.242-4.238-10.242-10.992
		c0-7.107,4.724-11.301,10.595-11.301C222.084,32.826,226.234,37.284,226.234,43.774z M209.326,43.994
		c0,4.679,2.648,8.211,6.445,8.211c3.708,0,6.489-3.487,6.489-8.299c0-3.62-1.81-8.167-6.401-8.167
		C211.313,35.74,209.326,39.977,209.326,43.994z"/>
	<path fill="#FFFFFF" d="M231.131,39.051c0-2.251-0.088-4.017-0.177-5.783h3.399l0.177,3.487h0.132
		c1.192-2.03,3.178-3.929,6.754-3.929c2.87,0,5.077,1.766,6.004,4.282h0.088c0.662-1.236,1.545-2.119,2.428-2.781
		c1.28-0.971,2.648-1.501,4.679-1.501c2.869,0,7.062,1.854,7.062,9.271v12.537h-3.795V42.582c0-4.149-1.545-6.577-4.636-6.577
		c-2.251,0-3.929,1.633-4.635,3.487c-0.177,0.574-0.309,1.236-0.309,1.942v13.199h-3.796V41.831c0-3.399-1.501-5.827-4.458-5.827
		c-2.384,0-4.194,1.942-4.812,3.884c-0.221,0.53-0.309,1.236-0.309,1.898v12.846h-3.796V39.051z"/>
	<path fill="#FFFFFF" d="M272.269,27.264c0,1.324-0.928,2.384-2.473,2.384c-1.412,0-2.338-1.06-2.338-2.384s0.971-2.428,2.428-2.428
		C271.299,24.836,272.269,25.896,272.269,27.264z M267.943,54.633V33.267h3.885v21.366H267.943z"/>
	<path fill="#FFFFFF" d="M278.271,39.051c0-2.251-0.043-4.017-0.176-5.783h3.443l0.221,3.532h0.088
		c1.059-1.986,3.531-3.973,7.062-3.973c2.957,0,7.549,1.766,7.549,9.094v12.713h-3.885V42.317c0-3.443-1.279-6.312-4.943-6.312
		c-2.518,0-4.504,1.81-5.209,3.973c-0.178,0.486-0.266,1.148-0.266,1.81v12.846h-3.885V39.051z"/>
	<path fill="#FFFFFF" d="M321.045,51.499c0,4.944-1.016,7.902-3.047,9.8c-2.119,1.898-5.121,2.561-7.812,2.561
		c-2.561,0-5.387-0.618-7.107-1.766l0.971-3.002c1.412,0.927,3.619,1.722,6.27,1.722c3.973,0,6.885-2.075,6.885-7.504v-2.34h-0.088
		c-1.146,1.987-3.486,3.576-6.797,3.576c-5.299,0-9.094-4.502-9.094-10.418c0-7.239,4.723-11.301,9.666-11.301
		c3.709,0,5.695,1.898,6.666,3.664h0.088l0.133-3.223h3.443c-0.133,1.501-0.176,3.267-0.176,5.827V51.499z M317.16,41.699
		c0-0.662-0.045-1.236-0.221-1.722c-0.707-2.295-2.561-4.149-5.43-4.149c-3.709,0-6.357,3.134-6.357,8.078
		c0,4.194,2.164,7.681,6.312,7.681c2.428,0,4.592-1.501,5.387-3.973c0.221-0.662,0.309-1.413,0.309-2.075V41.699z"/>
	<path fill="#FFFFFF" d="M336.269,50.704c1.193,0.706,3.223,1.501,5.166,1.501c2.781,0,4.105-1.369,4.105-3.179
		c0-1.854-1.104-2.825-3.93-3.884c-3.885-1.413-5.693-3.487-5.693-6.048c0-3.443,2.824-6.269,7.371-6.269
		c2.164,0,4.061,0.574,5.209,1.324l-0.928,2.825c-0.838-0.529-2.383-1.28-4.369-1.28c-2.295,0-3.531,1.324-3.531,2.914
		c0,1.766,1.236,2.56,4.018,3.664c3.662,1.369,5.605,3.223,5.605,6.401c0,3.796-2.957,6.445-7.945,6.445
		c-2.34,0-4.504-0.618-6.004-1.5L336.269,50.704z"/>
	<path fill="#FFFFFF" d="M373.613,43.774c0,7.902-5.518,11.345-10.639,11.345c-5.738,0-10.24-4.238-10.24-10.992
		c0-7.107,4.723-11.301,10.594-11.301C369.465,32.826,373.613,37.284,373.613,43.774z M356.707,43.994
		c0,4.679,2.648,8.211,6.445,8.211c3.707,0,6.488-3.487,6.488-8.299c0-3.62-1.811-8.167-6.4-8.167
		C358.693,35.74,356.707,39.977,356.707,43.994z"/>
	<path fill="#FFFFFF" d="M397.845,43.774c0,7.902-5.518,11.345-10.639,11.345c-5.738,0-10.24-4.238-10.24-10.992
		c0-7.107,4.723-11.301,10.594-11.301C393.697,32.826,397.845,37.284,397.845,43.774z M380.939,43.994
		c0,4.679,2.648,8.211,6.445,8.211c3.707,0,6.488-3.487,6.488-8.299c0-3.62-1.811-8.167-6.4-8.167
		C382.926,35.74,380.939,39.977,380.939,43.994z"/>
	<path fill="#FFFFFF" d="M402.744,39.051c0-2.251-0.045-4.017-0.178-5.783h3.443l0.221,3.532h0.088
		c1.061-1.986,3.533-3.973,7.064-3.973c2.957,0,7.549,1.766,7.549,9.094v12.713h-3.885V42.317c0-3.443-1.281-6.312-4.945-6.312
		c-2.516,0-4.502,1.81-5.209,3.973c-0.176,0.486-0.264,1.148-0.264,1.81v12.846h-3.885V39.051z"/>
	<path fill="#FFFFFF" d="M455.933,43.774c0,7.902-5.52,11.345-10.639,11.345c-5.74,0-10.242-4.238-10.242-10.992
		c0-7.107,4.723-11.301,10.594-11.301C451.783,32.826,455.933,37.284,455.933,43.774z M439.025,43.994
		c0,4.679,2.648,8.211,6.445,8.211c3.709,0,6.49-3.487,6.49-8.299c0-3.62-1.811-8.167-6.402-8.167
		C441.011,35.74,439.025,39.977,439.025,43.994z"/>
	<path fill="#FFFFFF" d="M460.83,39.051c0-2.251-0.043-4.017-0.176-5.783h3.443l0.221,3.532h0.088
		c1.059-1.986,3.531-3.973,7.062-3.973c2.957,0,7.549,1.766,7.549,9.094v12.713h-3.885V42.317c0-3.443-1.279-6.312-4.943-6.312
		c-2.518,0-4.504,1.81-5.209,3.973c-0.178,0.486-0.266,1.148-0.266,1.81v12.846h-3.885V39.051z"/>
</g>
</svg>
