<?xml version="1.0" encoding="utf-8"?>
<!-- Generator: Adobe Illustrator 16.0.0, SVG Export Plug-In . SVG Version: 6.00 Build 0)  -->
<!DOCTYPE svg PUBLIC "-//W3C//DTD SVG 1.1//EN" "http://www.w3.org/Graphics/SVG/1.1/DTD/svg11.dtd">
<svg version="1.1" xmlns="http://www.w3.org/2000/svg" xmlns:xlink="http://www.w3.org/1999/xlink" x="0px" y="0px"
	 width="537.188px" height="80px" viewBox="0 0 537.188 80" enable-background="new 0 0 537.188 80" xml:space="preserve">
<g id="LOGO">
</g>
<g id="Layer_4">
</g>
<g id="Layer_5">
</g>
<g id="Layer_8">
	<g>
		<path fill="#FFFFFF" d="M173.725,56.461c0,1.738-2.856,3.128-6.354,3.128s-6.355-1.39-6.355-3.128v-3.822
			c0-0.406,0.875-0.638,1.982-0.638c1.05,0,1.924,0.231,1.924,0.638v2.548c0,0.638,1.108,1.217,2.449,1.217s2.448-0.579,2.448-1.217
			V42.444c0-0.638-1.107-1.217-2.448-1.217c-3.498,0-6.355-1.39-6.355-3.128V22.982c0-1.796,2.857-3.187,6.355-3.187
			s6.354,1.391,6.354,3.187v3.765c0,0.405-0.874,0.695-1.981,0.695c-1.05,0-1.925-0.29-1.925-0.695v-2.549
			c0-0.637-1.107-1.158-2.448-1.158s-2.449,0.521-2.449,1.158v12.338c0,0.694,1.108,1.216,2.449,1.216
			c3.498,0,6.354,1.391,6.354,3.128V56.461z"/>
		<path fill="#FFFFFF" d="M191.217,58.604c0,0.405-0.816,0.695-1.924,0.695c-1.108,0-1.925-0.29-1.925-0.695V40.938h-4.897v17.667
			c0,0.405-0.874,0.695-1.982,0.695c-1.049,0-1.924-0.29-1.924-0.695V22.982c0-1.796,2.857-3.187,6.355-3.187
			s6.297,1.391,6.297,3.187V58.604z M187.368,37.463V24.198c0-0.637-1.107-1.158-2.448-1.158c-1.399,0-2.449,0.521-2.449,1.158
			v13.265H187.368z"/>
		<path fill="#FFFFFF" d="M216.929,58.604c0,0.405-0.816,0.695-1.924,0.695c-1.108,0-1.924-0.29-1.924-0.695V24.198
			c0-0.637-0.7-1.158-2.1-1.158c-1.341,0-2.04,0.521-2.04,1.158v34.406c0,0.405-0.875,0.695-1.925,0.695
			c-1.107,0-1.982-0.29-1.982-0.695V24.198c0-0.637-0.699-1.158-2.04-1.158s-2.041,0.521-2.041,1.158v34.406
			c0,0.405-0.874,0.695-1.982,0.695c-1.049,0-1.924-0.29-1.924-0.695V22.982c0-1.796,2.449-3.187,5.947-3.187
			c1.399,0,3.148,0.58,4.022,1.159c0.816-0.579,2.565-1.159,3.965-1.159c3.498,0,5.947,1.391,5.947,3.187V58.604z"/>
		<path fill="#FFFFFF" d="M235.413,58.604c0,0.405-0.816,0.695-1.924,0.695c-1.108,0-1.925-0.29-1.925-0.695V40.938h-4.897v17.667
			c0,0.405-0.874,0.695-1.982,0.695c-1.049,0-1.924-0.29-1.924-0.695V22.982c0-1.796,2.857-3.187,6.355-3.187
			s6.297,1.391,6.297,3.187V58.604z M231.564,37.463V24.198c0-0.637-1.107-1.158-2.448-1.158c-1.399,0-2.449,0.521-2.449,1.158
			v13.265H231.564z"/>
		<path fill="#FFFFFF" d="M262.698,56.461c0,1.738-2.856,3.128-6.354,3.128s-6.355-1.39-6.355-3.128v-3.822
			c0-0.406,0.875-0.638,1.982-0.638c1.05,0,1.924,0.231,1.924,0.638v2.548c0,0.638,1.108,1.217,2.449,1.217s2.448-0.579,2.448-1.217
			V42.444c0-0.638-1.107-1.217-2.448-1.217c-3.498,0-6.355-1.39-6.355-3.128V22.982c0-1.796,2.857-3.187,6.355-3.187
			s6.354,1.391,6.354,3.187v3.765c0,0.405-0.874,0.695-1.981,0.695c-1.05,0-1.925-0.29-1.925-0.695v-2.549
			c0-0.637-1.107-1.158-2.448-1.158s-2.449,0.521-2.449,1.158v12.338c0,0.694,1.108,1.216,2.449,1.216
			c3.498,0,6.354,1.391,6.354,3.128V56.461z"/>
		<path fill="#FFFFFF" d="M280.191,58.604c0,0.405-0.816,0.695-1.924,0.695c-1.108,0-1.925-0.29-1.925-0.695V40.938h-4.897v17.667
			c0,0.405-0.874,0.695-1.982,0.695c-1.049,0-1.924-0.29-1.924-0.695V22.982c0-1.796,2.857-3.187,6.355-3.187
			s6.297,1.391,6.297,3.187V58.604z M276.343,37.463V24.198c0-0.637-1.107-1.158-2.448-1.158c-1.399,0-2.449,0.521-2.449,1.158
			v13.265H276.343z"/>
		<path fill="#FFFFFF" d="M305.903,58.604c0,0.405-0.816,0.695-1.924,0.695c-1.108,0-1.924-0.29-1.924-0.695V24.198
			c0-0.637-0.7-1.158-2.1-1.158c-1.341,0-2.04,0.521-2.04,1.158v34.406c0,0.405-0.875,0.695-1.925,0.695
			c-1.107,0-1.982-0.29-1.982-0.695V24.198c0-0.637-0.699-1.158-2.04-1.158s-2.041,0.521-2.041,1.158v34.406
			c0,0.405-0.874,0.695-1.982,0.695c-1.049,0-1.924-0.29-1.924-0.695V22.982c0-1.796,2.449-3.187,5.947-3.187
			c1.399,0,3.148,0.58,4.022,1.159c0.816-0.579,2.565-1.159,3.965-1.159c3.498,0,5.947,1.391,5.947,3.187V58.604z"/>
		<path fill="#FFFFFF" d="M324.387,58.604c0,0.405-0.816,0.695-1.924,0.695c-1.108,0-1.925-0.29-1.925-0.695V40.938h-4.897v17.667
			c0,0.405-0.874,0.695-1.982,0.695c-1.049,0-1.924-0.29-1.924-0.695V22.982c0-1.796,2.857-3.187,6.355-3.187
			s6.297,1.391,6.297,3.187V58.604z M320.538,37.463V24.198c0-0.637-1.107-1.158-2.448-1.158c-1.399,0-2.449,0.521-2.449,1.158
			v13.265H320.538z"/>
		<path fill="#FFFFFF" d="M351.672,56.461c0,1.738-2.856,3.128-6.354,3.128s-6.355-1.39-6.355-3.128v-3.822
			c0-0.406,0.875-0.638,1.982-0.638c1.05,0,1.924,0.231,1.924,0.638v2.548c0,0.638,1.108,1.217,2.449,1.217s2.448-0.579,2.448-1.217
			v-7.935c0-0.638-1.107-1.159-2.448-1.159c-3.498,0-6.355-1.39-6.355-3.186V32.655c0-1.796,2.857-3.186,6.355-3.186
			s6.354,1.39,6.354,3.186v3.765c0,0.405-0.874,0.638-1.981,0.638c-1.05,0-1.925-0.232-1.925-0.638v-2.549
			c0-0.637-1.107-1.216-2.448-1.216s-2.449,0.579-2.449,1.216v7.473c0,0.694,1.108,1.274,2.449,1.274
			c3.498,0,6.354,1.39,6.354,3.127V56.461z"/>
		<path fill="#FFFFFF" d="M367.241,33.523h-4.373v25.081c0,0.405-0.875,0.695-1.982,0.695c-1.05,0-1.924-0.29-1.924-0.695V33.523
			h-3.906c-0.351,0-0.642-0.753-0.642-1.737s0.291-1.737,0.642-1.737h3.906v-9.268c0-0.405,0.874-0.638,1.924-0.638
			c1.107,0,1.982,0.232,1.982,0.638v9.268h4.373c0.407,0,0.641,0.753,0.641,1.737S367.648,33.523,367.241,33.523z"/>
		<path fill="#FFFFFF" d="M384.032,56.403c0,1.796-2.799,3.186-6.297,3.186s-6.355-1.39-6.355-3.186V30.454
			c0-0.405,0.875-0.695,1.924-0.695c1.108,0,1.982,0.29,1.982,0.695v24.675c0,0.695,1.05,1.274,2.449,1.274
			c1.341,0,2.448-0.579,2.448-1.274V30.454c0-0.405,0.816-0.695,1.925-0.695c1.107,0,1.924,0.29,1.924,0.695V56.403z"/>
		<path fill="#FFFFFF" d="M402.515,56.403c0,1.796-2.799,3.186-6.297,3.186s-6.355-1.39-6.355-3.186V32.655
			c0-1.448,1.924-3.186,5.772-3.186c1.107,0,2.099,0.289,3.031,0.694v-9.383c0-0.405,0.816-0.638,1.925-0.638
			c1.107,0,1.924,0.232,1.924,0.638V56.403z M398.666,33.871c0-0.637-1.107-1.216-2.448-1.216c-1.399,0-2.449,0.579-2.449,1.216
			v21.315c0,0.638,1.05,1.217,2.449,1.217c1.341,0,2.448-0.579,2.448-1.217V33.871z"/>
		<path fill="#FFFFFF" d="M412.251,23.33c0,0.405-0.874,0.637-1.982,0.637c-1.049,0-1.924-0.231-1.924-0.637v-2.549
			c0-0.405,0.875-0.638,1.924-0.638c1.108,0,1.982,0.232,1.982,0.638V23.33z M412.251,58.604c0,0.405-0.874,0.695-1.982,0.695
			c-1.049,0-1.924-0.29-1.924-0.695v-28.15c0-0.405,0.875-0.695,1.924-0.695c1.108,0,1.982,0.29,1.982,0.695V58.604z"/>
		<path fill="#FFFFFF" d="M430.734,56.403c0,1.796-2.799,3.186-6.297,3.186s-6.355-1.39-6.355-3.186V32.655
			c0-1.796,2.857-3.186,6.355-3.186s6.297,1.39,6.297,3.186V56.403z M426.886,33.871c0-0.637-1.107-1.216-2.448-1.216
			c-1.399,0-2.449,0.579-2.449,1.216v21.315c0,0.638,1.05,1.217,2.449,1.217c1.341,0,2.448-0.579,2.448-1.217V33.871z"/>
		<path fill="#FFFFFF" d="M448.283,56.461c0,1.738-2.856,3.128-6.354,3.128s-6.355-1.39-6.355-3.128v-3.822
			c0-0.406,0.875-0.638,1.982-0.638c1.05,0,1.924,0.231,1.924,0.638v2.548c0,0.638,1.108,1.217,2.449,1.217s2.448-0.579,2.448-1.217
			v-7.935c0-0.638-1.107-1.159-2.448-1.159c-3.498,0-6.355-1.39-6.355-3.186V32.655c0-1.796,2.857-3.186,6.355-3.186
			s6.354,1.39,6.354,3.186v3.765c0,0.405-0.874,0.638-1.981,0.638c-1.05,0-1.925-0.232-1.925-0.638v-2.549
			c0-0.637-1.107-1.216-2.448-1.216s-2.449,0.579-2.449,1.216v7.473c0,0.694,1.108,1.274,2.449,1.274
			c3.498,0,6.354,1.39,6.354,3.127V56.461z"/>
	</g>
	<g>
		<path fill="#FFFFFF" d="M529.858,39.692c0-19.904-16.191-36.096-36.096-36.096s-36.095,16.191-36.095,36.096
			s16.191,36.096,36.095,36.096c6.87,0,13.296-1.928,18.769-5.275c1.508,1.467,3.563,2.369,5.833,2.369
			c4.628,0,8.381-3.752,8.381-8.381c0-2.244-0.883-4.281-2.319-5.783C527.867,53.19,529.858,46.671,529.858,39.692z M518.364,56.122
			c-4.627,0-8.379,3.75-8.379,8.379c0,1.684,0.499,3.25,1.352,4.562c-5.141,3.088-11.152,4.865-17.573,4.865
			c-18.877,0-34.235-15.357-34.235-34.236s15.358-34.238,34.235-34.238c18.878,0,34.239,15.359,34.239,34.238
			c0,6.523-1.834,12.625-5.015,17.818C521.662,56.634,520.073,56.122,518.364,56.122z"/>
		<circle fill="#FFFFFF" cx="493.805" cy="39.693" r="18.741"/>
		<path fill="#FFFFFF" d="M493.805,63.386c-13.064,0-23.693-10.627-23.693-23.691c0-13.066,10.629-23.695,23.693-23.695
			c13.065,0,23.695,10.629,23.695,23.695C517.5,52.759,506.87,63.386,493.805,63.386z M493.805,17.827
			c-12.056,0-21.863,9.809-21.863,21.867c0,12.055,9.808,21.863,21.863,21.863c12.057,0,21.866-9.809,21.866-21.863
			C515.67,27.636,505.861,17.827,493.805,17.827z"/>
		<text transform="matrix(1.0065 0 0 1 480.5703 48.3076)" fill="#121B3E" font-family="'Nord-Regular'" font-size="23.6635">2015</text>
	</g>
	<g>
		<g>
			<path fill="#FFFFFF" d="M22.905,52.533c0,1.488-2.318,2.641-5.217,2.641c-2.899,0-5.267-1.152-5.267-2.641V24.835
				c0-1.488,2.367-2.641,5.267-2.641c2.898,0,5.217,1.152,5.217,2.641v3.12c0,0.336-0.676,0.576-1.594,0.576
				s-1.595-0.24-1.595-0.576v-2.112c0-0.528-0.918-0.96-2.028-0.96c-1.16,0-2.029,0.432-2.029,0.96v25.683
				c0,0.527,0.869,1.008,2.029,1.008c1.11,0,2.028-0.48,2.028-1.008v-2.112c0-0.337,0.677-0.528,1.595-0.528
				s1.594,0.191,1.594,0.528V52.533z"/>
			<path fill="#FFFFFF" d="M37.447,52.533c0,1.488-2.318,2.641-5.217,2.641c-2.899,0-5.267-1.152-5.267-2.641V32.852
				c0-1.488,2.367-2.641,5.267-2.641c2.898,0,5.217,1.152,5.217,2.641V52.533z M34.259,33.859c0-0.527-0.918-1.008-2.028-1.008
				c-1.16,0-2.029,0.48-2.029,1.008v17.666c0,0.527,0.869,1.008,2.029,1.008c1.11,0,2.028-0.48,2.028-1.008V33.859z"/>
			<path fill="#FFFFFF" d="M52.762,52.533c0,1.2-1.594,2.641-4.734,2.641c-0.966,0-1.787-0.24-2.512-0.576v7.776
				c0,0.336-0.725,0.528-1.643,0.528c-0.87,0-1.595-0.192-1.595-0.528V32.852c0-1.488,2.367-2.641,5.267-2.641
				c2.898,0,5.217,1.152,5.217,2.641V52.533z M49.573,33.859c0-0.527-0.918-1.008-2.028-1.008c-1.16,0-2.029,0.48-2.029,1.008
				v17.666c0,0.527,0.869,1.008,2.029,1.008c1.11,0,2.028-0.48,2.028-1.008V33.859z"/>
			<path fill="#FFFFFF" d="M68.077,60.55c0,1.488-2.318,2.641-5.217,2.641c-2.899,0-5.267-1.152-5.267-2.641v-3.12
				c0-0.336,0.725-0.576,1.595-0.576c0.918,0,1.643,0.24,1.643,0.576v2.112c0,0.528,0.869,0.96,2.029,0.96
				c1.11,0,2.028-0.432,2.028-0.96V49.076c-0.772,0.337-1.594,0.576-2.512,0.576c-3.188,0-4.783-1.439-4.783-2.592V31.027
				c0-0.336,0.725-0.576,1.595-0.576c0.918,0,1.643,0.24,1.643,0.576v14.977c0,0.529,0.869,0.961,2.029,0.961
				c1.11,0,2.028-0.432,2.028-0.961V31.027c0-0.336,0.677-0.576,1.595-0.576s1.594,0.24,1.594,0.576V60.55z"/>
			<path fill="#FFFFFF" d="M76.146,25.123c0,0.336-0.725,0.527-1.643,0.527c-0.87,0-1.595-0.191-1.595-0.527v-2.112
				c0-0.336,0.725-0.528,1.595-0.528c0.918,0,1.643,0.192,1.643,0.528V25.123z M76.146,54.357c0,0.336-0.725,0.576-1.643,0.576
				c-0.87,0-1.595-0.24-1.595-0.576v-23.33c0-0.336,0.725-0.576,1.595-0.576c0.918,0,1.643,0.24,1.643,0.576V54.357z"/>
			<path fill="#FFFFFF" d="M91.072,60.55c0,1.488-2.318,2.641-5.217,2.641s-5.266-1.152-5.266-2.641v-9.36
				c0-1.152,1.497-2.16,3.623-2.496V44.66c-2.126-0.287-3.623-1.296-3.623-2.496v-9.312c0-1.488,2.367-2.641,5.266-2.641
				s5.217,1.152,5.217,2.641v9.312c0,1.2-1.497,2.209-3.623,2.496v4.033c2.126,0.336,3.623,1.344,3.623,2.496V60.55z M87.884,33.859
				c0-0.527-0.917-1.008-2.028-1.008c-1.159,0-2.029,0.48-2.029,1.008v7.249c0,0.575,0.87,1.056,2.029,1.056
				c1.111,0,2.028-0.48,2.028-1.056V33.859z M87.884,52.245c0-0.576-0.917-1.008-2.028-1.008c-1.159,0-2.029,0.432-2.029,1.008
				v7.297c0,0.528,0.87,0.96,2.029,0.96c1.111,0,2.028-0.432,2.028-0.96V52.245z"/>
			<path fill="#FFFFFF" d="M106.002,54.357c0,0.336-0.676,0.576-1.594,0.576s-1.595-0.24-1.595-0.576V33.859
				c0-0.527-0.918-1.008-2.028-1.008c-1.16,0-2.029,0.48-2.029,1.008v20.498c0,0.336-0.725,0.576-1.643,0.576
				c-0.87,0-1.595-0.24-1.595-0.576V23.011c0-0.336,0.725-0.528,1.595-0.528c0.918,0,1.643,0.192,1.643,0.528v7.776
				c0.725-0.336,1.546-0.576,2.512-0.576c3.141,0,4.734,1.44,4.734,2.641V54.357z"/>
			<path fill="#FFFFFF" d="M119.723,33.571H116.1v20.786c0,0.336-0.726,0.576-1.643,0.576c-0.87,0-1.595-0.24-1.595-0.576V33.571
				h-3.236c-0.29,0-0.531-0.624-0.531-1.44c0-0.815,0.241-1.439,0.531-1.439h3.236v-7.681c0-0.336,0.725-0.528,1.595-0.528
				c0.917,0,1.643,0.192,1.643,0.528v7.681h3.623c0.338,0,0.531,0.624,0.531,1.439C120.254,32.947,120.061,33.571,119.723,33.571z"
				/>
		</g>
	</g>
	<path fill="#FFFFFF" d="M147.949,51.909c0,2.354-3.961,4.273-8.889,4.273c-4.879,0-8.841-1.92-8.841-4.273V27.524
		c0-2.4,3.962-4.321,8.841-4.321c4.928,0,8.889,1.921,8.889,4.321V51.909z M144.326,46.438c0-0.336-0.725-0.576-1.594-0.576
		c-0.87,0-1.643,0.24-1.643,0.576v2.112c0,0.527-0.87,0.96-2.029,0.96c-1.062,0-2.028-0.433-2.028-0.96V30.884
		c0-0.576,0.966-1.008,2.028-1.008c1.159,0,2.029,0.432,2.029,1.008v2.112c0,0.288,0.772,0.528,1.643,0.528
		c0.869,0,1.594-0.24,1.594-0.528v-3.168c0-1.44-2.367-2.593-5.266-2.593s-5.217,1.152-5.217,2.593v19.729
		c0,1.488,2.318,2.641,5.217,2.641s5.266-1.152,5.266-2.641V46.438z"/>
</g>
<g id="Layer_3" display="none">
</g>
<g id="Layer_6">
</g>
<g id="Layer_7">
</g>
<g id="PORTADA_FB">
</g>
</svg>
