<?xml version="1.0" encoding="utf-8"?>
<!-- Generator: Adobe Illustrator 16.0.0, SVG Export Plug-In . SVG Version: 6.00 Build 0)  -->
<!DOCTYPE svg PUBLIC "-//W3C//DTD SVG 1.1//EN" "http://www.w3.org/Graphics/SVG/1.1/DTD/svg11.dtd">
<svg version="1.1" xmlns="http://www.w3.org/2000/svg" xmlns:xlink="http://www.w3.org/1999/xlink" x="0px" y="0px"
	 width="522.667px" height="80px" viewBox="0 0 522.667 80" enable-background="new 0 0 522.667 80" xml:space="preserve">
<g id="LOGO">
</g>
<g id="Layer_4">
</g>
<g id="Layer_5">
</g>
<g id="Layer_8">
	<g>
		<path fill="#FFFFFF" d="M224.858,39.692c0-19.904-16.191-36.096-36.096-36.096s-36.095,16.191-36.095,36.096
			s16.191,36.096,36.095,36.096c6.87,0,13.296-1.928,18.769-5.275c1.508,1.467,3.563,2.369,5.833,2.369
			c4.628,0,8.381-3.752,8.381-8.381c0-2.244-0.883-4.281-2.319-5.783C222.867,53.19,224.858,46.671,224.858,39.692z M213.364,56.122
			c-4.627,0-8.379,3.75-8.379,8.379c0,1.684,0.499,3.25,1.352,4.562c-5.141,3.088-11.152,4.865-17.573,4.865
			c-18.877,0-34.235-15.357-34.235-34.236s15.358-34.238,34.235-34.238c18.878,0,34.239,15.359,34.239,34.238
			c0,6.523-1.834,12.625-5.015,17.818C216.662,56.634,215.073,56.122,213.364,56.122z"/>
		<path fill="#FFFFFF" d="M188.805,63.386c-13.064,0-23.693-10.627-23.693-23.691c0-13.066,10.629-23.695,23.693-23.695
			c13.065,0,23.695,10.629,23.695,23.695C212.5,52.759,201.87,63.386,188.805,63.386z M188.805,17.827
			c-12.056,0-21.863,9.809-21.863,21.867c0,12.055,9.808,21.863,21.863,21.863c12.057,0,21.866-9.809,21.866-21.863
			C210.67,27.636,200.861,17.827,188.805,17.827z"/>
		<g>
			<path fill="#FFFFFF" d="M188.479,29.109c-2.462,0-4.479,0.979-4.479,2.203v16.762c0,1.264,2.017,2.243,4.479,2.243
				c2.463,0,4.521-0.979,4.521-2.243v-2.651c0-0.285-0.74-0.489-1.479-0.489S190,45.138,190,45.423v1.795
				c0,0.448-0.516,0.815-1.5,0.815c-0.902,0-1.5-0.367-1.5-0.815V32.209c0-0.489,0.597-0.856,1.5-0.856c0.985,0,1.5,0.367,1.5,0.856
				v1.795c0,0.244,0.781,0.448,1.521,0.448S193,34.248,193,34.004v-2.691C193,30.088,190.942,29.109,188.479,29.109z"/>
			<path fill="#FFFFFF" d="M188.805,20.952c-10.349,0-18.738,8.393-18.738,18.742s8.389,18.74,18.738,18.74
				c10.351,0,18.741-8.391,18.741-18.74S199.156,20.952,188.805,20.952z M196,50.071c0,2-3.334,3.631-7.521,3.631
				c-4.145,0-7.479-1.631-7.479-3.631V29.354c0-2.039,3.335-3.671,7.479-3.671c4.187,0,7.521,1.632,7.521,3.671V50.071z"/>
		</g>
		<g display="none">
			<path display="inline" fill="#FFFFFF" d="M181.382,48.308h-5.026v-6.935c0-0.733,1.167-1.302,2.596-1.302
				c0.548,0,1-0.213,1-0.496v-5.491c0-0.26-0.453-0.474-1-0.474s-1,0.214-1,0.474v1.041c0,0.166-0.357,0.284-0.786,0.284
				c-0.452,0-0.81-0.118-0.81-0.284v-1.538c0-0.733,1.167-1.302,2.596-1.302s2.596,0.568,2.596,1.302v6.604
				c0,0.733-1.167,1.302-2.596,1.302c-0.548,0-1,0.213-1,0.496v4.899h3.43c0.167,0,0.262,0.308,0.262,0.71
				S181.549,48.308,181.382,48.308z"/>
			<path display="inline" fill="#FFFFFF" d="M188.575,47.242c0,0.734-1.144,1.302-2.573,1.302s-2.596-0.567-2.596-1.302V33.587
				c0-0.733,1.167-1.302,2.596-1.302s2.573,0.568,2.573,1.302V47.242z M187.003,34.084c0-0.26-0.453-0.474-1-0.474
				c-0.572,0-1,0.214-1,0.474v12.662c0,0.26,0.429,0.496,1,0.496c0.548,0,1-0.236,1-0.496V34.084z"/>
			<path display="inline" fill="#FFFFFF" d="M194.124,48.142c0,0.166-0.333,0.284-0.786,0.284s-0.786-0.118-0.786-0.284V33.942h-2
				c-0.167,0-0.286-0.308-0.286-0.71c0-0.379,0.119-0.71,0.286-0.71h3.573V48.142z"/>
			<path display="inline" fill="#FFFFFF" d="M201.293,47.267c0,0.71-1.167,1.277-2.596,1.277s-2.596-0.567-2.596-1.277v-1.562
				c0-0.165,0.357-0.26,0.81-0.26c0.429,0,0.786,0.095,0.786,0.26v1.042c0,0.26,0.453,0.496,1,0.496s1-0.236,1-0.496v-5.491
				c0-0.284-0.453-0.497-1-0.497h-1.787v-8.235h4.097c0.167,0,0.286,0.331,0.286,0.71c0,0.402-0.119,0.71-0.286,0.71h-2.525v5.396
				c1.596,0,2.811,0.568,2.811,1.278V47.267z"/>
		</g>
	</g>
	<g>
		<path fill="#FFFFFF" d="M244.827,55.795c0,1.738-2.856,3.128-6.354,3.128s-6.355-1.39-6.355-3.128v-3.822
			c0-0.406,0.875-0.638,1.982-0.638c1.05,0,1.924,0.231,1.924,0.638v2.548c0,0.638,1.108,1.217,2.449,1.217s2.448-0.579,2.448-1.217
			V41.778c0-0.638-1.107-1.217-2.448-1.217c-3.498,0-6.355-1.39-6.355-3.128V22.316c0-1.796,2.857-3.187,6.355-3.187
			s6.354,1.391,6.354,3.187v3.765c0,0.405-0.874,0.695-1.981,0.695c-1.05,0-1.925-0.29-1.925-0.695v-2.549
			c0-0.637-1.107-1.158-2.448-1.158s-2.449,0.521-2.449,1.158V35.87c0,0.694,1.108,1.216,2.449,1.216
			c3.498,0,6.354,1.391,6.354,3.128V55.795z"/>
		<path fill="#FFFFFF" d="M262.319,57.938c0,0.405-0.816,0.695-1.924,0.695c-1.108,0-1.925-0.29-1.925-0.695V40.271h-4.897v17.667
			c0,0.405-0.874,0.695-1.982,0.695c-1.049,0-1.924-0.29-1.924-0.695V22.316c0-1.796,2.857-3.187,6.355-3.187
			s6.297,1.391,6.297,3.187V57.938z M258.471,36.797V23.532c0-0.637-1.107-1.158-2.448-1.158c-1.399,0-2.449,0.521-2.449,1.158
			v13.265H258.471z"/>
		<path fill="#FFFFFF" d="M288.031,57.938c0,0.405-0.816,0.695-1.924,0.695c-1.108,0-1.924-0.29-1.924-0.695V23.532
			c0-0.637-0.7-1.158-2.1-1.158c-1.341,0-2.04,0.521-2.04,1.158v34.406c0,0.405-0.875,0.695-1.925,0.695
			c-1.107,0-1.982-0.29-1.982-0.695V23.532c0-0.637-0.699-1.158-2.04-1.158s-2.041,0.521-2.041,1.158v34.406
			c0,0.405-0.874,0.695-1.982,0.695c-1.049,0-1.924-0.29-1.924-0.695V22.316c0-1.796,2.449-3.187,5.947-3.187
			c1.399,0,3.148,0.58,4.022,1.159c0.816-0.579,2.565-1.159,3.965-1.159c3.498,0,5.947,1.391,5.947,3.187V57.938z"/>
		<path fill="#FFFFFF" d="M306.516,57.938c0,0.405-0.816,0.695-1.924,0.695c-1.108,0-1.925-0.29-1.925-0.695V40.271h-4.897v17.667
			c0,0.405-0.874,0.695-1.982,0.695c-1.049,0-1.924-0.29-1.924-0.695V22.316c0-1.796,2.857-3.187,6.355-3.187
			s6.297,1.391,6.297,3.187V57.938z M302.667,36.797V23.532c0-0.637-1.107-1.158-2.448-1.158c-1.399,0-2.449,0.521-2.449,1.158
			v13.265H302.667z"/>
		<path fill="#FFFFFF" d="M333.801,55.795c0,1.738-2.856,3.128-6.354,3.128s-6.355-1.39-6.355-3.128v-3.822
			c0-0.406,0.875-0.638,1.982-0.638c1.05,0,1.924,0.231,1.924,0.638v2.548c0,0.638,1.108,1.217,2.449,1.217s2.448-0.579,2.448-1.217
			V41.778c0-0.638-1.107-1.217-2.448-1.217c-3.498,0-6.355-1.39-6.355-3.128V22.316c0-1.796,2.857-3.187,6.355-3.187
			s6.354,1.391,6.354,3.187v3.765c0,0.405-0.874,0.695-1.981,0.695c-1.05,0-1.925-0.29-1.925-0.695v-2.549
			c0-0.637-1.107-1.158-2.448-1.158s-2.449,0.521-2.449,1.158V35.87c0,0.694,1.108,1.216,2.449,1.216
			c3.498,0,6.354,1.391,6.354,3.128V55.795z"/>
		<path fill="#FFFFFF" d="M351.294,57.938c0,0.405-0.816,0.695-1.924,0.695c-1.108,0-1.925-0.29-1.925-0.695V40.271h-4.897v17.667
			c0,0.405-0.874,0.695-1.982,0.695c-1.049,0-1.924-0.29-1.924-0.695V22.316c0-1.796,2.857-3.187,6.355-3.187
			s6.297,1.391,6.297,3.187V57.938z M347.445,36.797V23.532c0-0.637-1.107-1.158-2.448-1.158c-1.399,0-2.449,0.521-2.449,1.158
			v13.265H347.445z"/>
		<path fill="#FFFFFF" d="M377.006,57.938c0,0.405-0.816,0.695-1.924,0.695c-1.108,0-1.924-0.29-1.924-0.695V23.532
			c0-0.637-0.7-1.158-2.1-1.158c-1.341,0-2.04,0.521-2.04,1.158v34.406c0,0.405-0.875,0.695-1.925,0.695
			c-1.107,0-1.982-0.29-1.982-0.695V23.532c0-0.637-0.699-1.158-2.04-1.158s-2.041,0.521-2.041,1.158v34.406
			c0,0.405-0.874,0.695-1.982,0.695c-1.049,0-1.924-0.29-1.924-0.695V22.316c0-1.796,2.449-3.187,5.947-3.187
			c1.399,0,3.148,0.58,4.022,1.159c0.816-0.579,2.565-1.159,3.965-1.159c3.498,0,5.947,1.391,5.947,3.187V57.938z"/>
		<path fill="#FFFFFF" d="M395.489,57.938c0,0.405-0.816,0.695-1.924,0.695c-1.108,0-1.925-0.29-1.925-0.695V40.271h-4.897v17.667
			c0,0.405-0.874,0.695-1.982,0.695c-1.049,0-1.924-0.29-1.924-0.695V22.316c0-1.796,2.857-3.187,6.355-3.187
			s6.297,1.391,6.297,3.187V57.938z M391.641,36.797V23.532c0-0.637-1.107-1.158-2.448-1.158c-1.399,0-2.449,0.521-2.449,1.158
			v13.265H391.641z"/>
		<path fill="#FFFFFF" d="M422.774,55.795c0,1.738-2.856,3.128-6.354,3.128s-6.355-1.39-6.355-3.128v-3.822
			c0-0.406,0.875-0.638,1.982-0.638c1.05,0,1.924,0.231,1.924,0.638v2.548c0,0.638,1.108,1.217,2.449,1.217s2.448-0.579,2.448-1.217
			v-7.935c0-0.638-1.107-1.159-2.448-1.159c-3.498,0-6.355-1.39-6.355-3.186V31.989c0-1.796,2.857-3.186,6.355-3.186
			s6.354,1.39,6.354,3.186v3.765c0,0.405-0.874,0.638-1.981,0.638c-1.05,0-1.925-0.232-1.925-0.638v-2.549
			c0-0.637-1.107-1.216-2.448-1.216s-2.449,0.579-2.449,1.216v7.473c0,0.694,1.108,1.274,2.449,1.274
			c3.498,0,6.354,1.39,6.354,3.127V55.795z"/>
		<path fill="#FFFFFF" d="M438.344,32.857h-4.373v25.081c0,0.405-0.875,0.695-1.982,0.695c-1.05,0-1.924-0.29-1.924-0.695V32.857
			h-3.906c-0.351,0-0.642-0.753-0.642-1.737s0.291-1.737,0.642-1.737h3.906v-9.268c0-0.405,0.874-0.638,1.924-0.638
			c1.107,0,1.982,0.232,1.982,0.638v9.268h4.373c0.407,0,0.641,0.753,0.641,1.737S438.751,32.857,438.344,32.857z"/>
		<path fill="#FFFFFF" d="M455.135,55.737c0,1.796-2.799,3.186-6.297,3.186s-6.355-1.39-6.355-3.186V29.788
			c0-0.405,0.875-0.695,1.924-0.695c1.108,0,1.982,0.29,1.982,0.695v24.675c0,0.695,1.05,1.274,2.449,1.274
			c1.341,0,2.448-0.579,2.448-1.274V29.788c0-0.405,0.816-0.695,1.925-0.695c1.107,0,1.924,0.29,1.924,0.695V55.737z"/>
		<path fill="#FFFFFF" d="M473.617,55.737c0,1.796-2.799,3.186-6.297,3.186s-6.355-1.39-6.355-3.186V31.989
			c0-1.448,1.924-3.186,5.772-3.186c1.107,0,2.099,0.289,3.031,0.694v-9.383c0-0.405,0.816-0.638,1.925-0.638
			c1.107,0,1.924,0.232,1.924,0.638V55.737z M469.769,33.205c0-0.637-1.107-1.216-2.448-1.216c-1.399,0-2.449,0.579-2.449,1.216
			v21.315c0,0.638,1.05,1.217,2.449,1.217c1.341,0,2.448-0.579,2.448-1.217V33.205z"/>
		<path fill="#FFFFFF" d="M483.354,22.664c0,0.405-0.874,0.637-1.982,0.637c-1.049,0-1.924-0.231-1.924-0.637v-2.549
			c0-0.405,0.875-0.638,1.924-0.638c1.108,0,1.982,0.232,1.982,0.638V22.664z M483.354,57.938c0,0.405-0.874,0.695-1.982,0.695
			c-1.049,0-1.924-0.29-1.924-0.695v-28.15c0-0.405,0.875-0.695,1.924-0.695c1.108,0,1.982,0.29,1.982,0.695V57.938z"/>
		<path fill="#FFFFFF" d="M501.837,55.737c0,1.796-2.799,3.186-6.297,3.186s-6.355-1.39-6.355-3.186V31.989
			c0-1.796,2.857-3.186,6.355-3.186s6.297,1.39,6.297,3.186V55.737z M497.988,33.205c0-0.637-1.107-1.216-2.448-1.216
			c-1.399,0-2.449,0.579-2.449,1.216v21.315c0,0.638,1.05,1.217,2.449,1.217c1.341,0,2.448-0.579,2.448-1.217V33.205z"/>
		<path fill="#FFFFFF" d="M519.386,55.795c0,1.738-2.856,3.128-6.354,3.128s-6.355-1.39-6.355-3.128v-3.822
			c0-0.406,0.875-0.638,1.982-0.638c1.05,0,1.924,0.231,1.924,0.638v2.548c0,0.638,1.108,1.217,2.449,1.217s2.448-0.579,2.448-1.217
			v-7.935c0-0.638-1.107-1.159-2.448-1.159c-3.498,0-6.355-1.39-6.355-3.186V31.989c0-1.796,2.857-3.186,6.355-3.186
			s6.354,1.39,6.354,3.186v3.765c0,0.405-0.874,0.638-1.981,0.638c-1.05,0-1.925-0.232-1.925-0.638v-2.549
			c0-0.637-1.107-1.216-2.448-1.216s-2.449,0.579-2.449,1.216v7.473c0,0.694,1.108,1.274,2.449,1.274
			c3.498,0,6.354,1.39,6.354,3.127V55.795z"/>
	</g>
	<g>
		<text transform="matrix(1.0065 0 0 1 1.3887 58.29)" fill="#FFFFFF" font-family="'Nord-Regular'" font-size="57.5912">Copyright</text>
	</g>
</g>
<g id="Layer_3" display="none">
</g>
<g id="Layer_6">
</g>
<g id="Layer_7">
</g>
<g id="PORTADA_FB">
</g>
</svg>
