<?xml version="1.0" encoding="utf-8"?>
<!-- Generator: Adobe Illustrator 16.0.0, SVG Export Plug-In . SVG Version: 6.00 Build 0)  -->
<!DOCTYPE svg PUBLIC "-//W3C//DTD SVG 1.1//EN" "http://www.w3.org/Graphics/SVG/1.1/DTD/svg11.dtd">
<svg version="1.1" id="Layer_1" xmlns="http://www.w3.org/2000/svg" xmlns:xlink="http://www.w3.org/1999/xlink" x="0px" y="0px"
	 width="270px" height="436px" viewBox="0 0 270 436" enable-background="new 0 0 270 436" xml:space="preserve">
<path fill="#DDDDDD" d="M256.75,0h-243C6.294,0,0.25,5.856,0.25,13.08v409.84c0,7.225,6.044,13.08,13.5,13.08h243
	c7.455,0,13.5-5.855,13.5-13.08V13.08C270.25,5.856,264.205,0,256.75,0z M135.25,424.666c-9.756,0-17.666-7.909-17.666-17.666
	s7.91-17.666,17.666-17.666s17.666,7.909,17.666,17.666S145.006,424.666,135.25,424.666z M154.25,29h-38c-1.657,0-3-1.343-3-3
	s1.343-3,3-3h38c1.657,0,3,1.343,3,3S155.907,29,154.25,29z"/>
<path fill="#DDDDDD" d="M140.5,397.922c0,0.284-0.748,0.484-1.523,0.484c-0.73,0-1.477-0.2-1.477-0.484v-1.783
	c0-0.443-1.063-0.809-2-0.809c-0.936,0-2,0.365-2,0.809v8.625c0,0.485,1.196,0.852,2.133,0.852c2.444,0,4.867,0.97,4.867,2.184
	v10.895c0,1.215-2.558,2.185-5.002,2.185s-4.998-0.97-4.998-2.185v-2.674c0-0.285,0.745-0.445,1.521-0.445
	c0.73,0,1.479,0.16,1.479,0.445v1.782c0,0.445,1.064,0.852,2,0.852c0.937,0,2-0.406,2-0.852v-8.906c0-0.447-1.199-0.852-2.134-0.852
	c-2.444,0-4.866-0.973-4.866-2.186v-10.57c0-1.254,2.554-2.227,4.998-2.227s5.002,0.973,5.002,2.227V397.922z"/>
</svg>
