<?xml version="1.0" encoding="utf-8"?>
<!-- Generator: Adobe Illustrator 16.0.0, SVG Export Plug-In . SVG Version: 6.00 Build 0)  -->
<!DOCTYPE svg PUBLIC "-//W3C//DTD SVG 1.1//EN" "http://www.w3.org/Graphics/SVG/1.1/DTD/svg11.dtd">
<svg version="1.1" id="Layer_1" xmlns="http://www.w3.org/2000/svg" xmlns:xlink="http://www.w3.org/1999/xlink" x="0px" y="0px"
	 width="270px" height="436px" viewBox="0 0 270 436" enable-background="new 0 0 270 436" xml:space="preserve">
<path fill="#FFFFFF" d="M256.5,0h-243C6.044,0,0,5.856,0,13.08v409.84C0,430.145,6.044,436,13.5,436h243
	c7.455,0,13.5-5.855,13.5-13.08V13.08C270,5.856,263.955,0,256.5,0z M135,424.666c-9.756,0-17.666-7.909-17.666-17.666
	s7.91-17.666,17.666-17.666s17.666,7.909,17.666,17.666S144.756,424.666,135,424.666z M154,29h-38c-1.657,0-3-1.343-3-3s1.343-3,3-3
	h38c1.657,0,3,1.343,3,3S155.657,29,154,29z"/>
</svg>
