<svg xmlns="http://www.w3.org/2000/svg" xmlns:xlink="http://www.w3.org/1999/xlink" width="172.834" height="151.275" viewBox="0 0 172.834 151.275">
  <defs>
    <path id="a" d="M4533.834-3999.568c0 99.98-79.688 180.844-178.563 180.844h-664.408c-98.875 0-179.027-80.865-179.027-180.844v-660.412c0-99.98 80.152-181.744 179.027-181.744h664.41c98.874 0 178.562 81.766 178.562 181.744v660.412z"/>
  </defs>
  <clipPath id="b">
    <use xlink:href="#a" overflow="visible"/>
  </clipPath>
  <g clip-path="url(#b)">
    <defs>
      <path id="c" d="M-86.1-2465.998l3914.025-2184.017 1343.323 78.895 11864.586 18432.052-4436.61 171.396z"/>
    </defs>
    <clipPath id="d">
      <use xlink:href="#c" overflow="visible"/>
    </clipPath>
    <g clip-path="url(#d)">
      <path fill="#AC3AFF" d="M9381.98-869.03l-1.42-.514-25112.727-13298.18L9381.98-869.03M6151.608-3709.183l-.33-.052 799.385 702.944.55.12-799.605-703.013M5524.432-4260.6l-.183-.018 236.155 207.666.235.028-236.208-207.676m-267.018-234.762l-.125-.008 111.888 98.39.148.012-111.912-98.394m-559.617 1933.15l-38.948-951.35 618.094 136.81 480.15 1197.442-1059.297-382.902m581.314-817.985l-199.715-495.486 496.608 78.122 445.455 581.276-742.347-163.913m-637.98-566.2l-9.948-242.97 336.205 40.615 108.52 270.634-434.778-68.28m327.808-203.324l-68.822-170.745 297.31 28.898 143.052 186.67-371.54-44.822m-344.25-198.235l-4.48-109.462 230.88 18.632 47.068 117.383-273.468-26.552m227.533-91.335l-34.538-85.69 211.998 14.52 69.814 91.103-247.273-19.932m132.868-130.812l-191.29-11.56 22.5 56.115-199.438-13.647-2.182-53.292-170.85-10.324-16.102 50.675-.14.436 188.102 12.885 3.127 80.715-215.45-17.367-.173.542-32.512 102.313-.213.67 252.637 24.556 6.07 156.68-304.62-36.75-.32 1.013-69.698 219.337-.505 1.588 384.662 60.51 16.544 427.06-519.676-114.745-.982 3.092-246.206 774.812-2.26 7.11 806.425 292.576 146.746 3788L8462.328 4517.21l-2693.21-6681.725 1465.93 531.85 9800.786 16499.19v3733.75L8867.754-1054.907l-1635.437-591.158-1201.93-1563.92 716.956 158.69-719.385-677.307-450.523-70.752-233.57-303.918 328.268 39.656-216.295-203.644-257.195-24.972-97.102-126.347 211.726 17.086-103.14-97.105-179.525-12.285-45.512-59.22"/>
      <path fill="#121B3E" d="M4985.088-4570.104l159.318 9.628 65.72 61.877 103.14 97.106 142.572 134.232 216.295 203.644 355.826 335.014 719.384 677.308 2120.41 1996.386 8168.08 19655.184v-3733.752L8462.328 4517.212 4839.283 1232.89 3092.598-350.492l-1048.875-950.81-685.474-621.387-492.918-446.833-365.14-331 1458.087-846.593 706.66-410.3 403.95-234.542 266.64-154.816 185.548-107.732 139.267-80.86 106.136-61.625 72.94-42.35 140.615 8.497 146.16 8.833 155.26 9.383 162.374 9.813 170.848 10.325 179.12 10.826 191.29 11.56m186.052-1.022l-1343.214-78.89L-86.1-2465.997l-15646.066-11701.727L9380.56-869.545 6950.664-3006.29l-799.385-702.945-390.873-343.717-236.156-207.666-155.072-136.362-111.89-98.39-83.173-73.14-2.975-2.616"/>
    </g>
  </g>
  <defs>
    <path id="e" d="M7915.834-3999.568c0 99.98-79.69 180.844-178.563 180.844h-664.408c-98.875 0-179.027-80.865-179.027-180.844v-660.412c0-99.98 80.152-181.744 179.027-181.744h664.41c98.873 0 178.562 81.766 178.562 181.744v660.412z"/>
  </defs>
  <clipPath id="f">
    <use xlink:href="#e" overflow="visible"/>
  </clipPath>
  <g clip-path="url(#f)">
    <defs>
      <path id="g" d="M3294.914-2456.004l3914.014-2184.013 1343.323 78.895 8483.584 18432.065-1055.53 171.4z"/>
    </defs>
    <clipPath id="h">
      <use xlink:href="#g" overflow="visible"/>
    </clipPath>
    <g clip-path="url(#h)">
      <path fill="#AC3AFF" d="M12762.973-859.038l-1.428-.515-28493.71-13308.172L12762.972-859.038m-3230.36-2840.146l-.334-.052 799.38 702.943.553.123-799.6-703.014M8905.434-4250.6l-.184-.02 236.156 207.667.238.03-236.21-207.678m-267.016-234.763l-.127-.01 111.89 98.39.15.013-111.912-98.393m-559.622 1933.146l-38.946-951.348 618.096 136.81 480.15 1197.44-1059.3-382.902m581.316-817.98l-199.71-495.477 496.61 78.123 445.444 581.264-742.344-163.912m-637.98-566.2l-9.948-242.97 336.206 40.615 108.52 270.634-434.78-68.28m327.81-203.323l-68.822-170.745 297.308 28.897 143.05 186.668-371.537-44.82m-344.25-198.236l-4.48-109.462 230.88 18.63 47.07 117.384-273.47-26.552m227.534-91.334l-34.54-85.692 211.998 14.522 69.814 91.102-247.272-19.932m132.867-130.813l-191.29-11.56 22.502 56.115-199.44-13.648-2.182-53.293-170.848-10.326-16.103 50.675-.14.434 188.1 12.885 3.128 80.713-215.45-17.367-.173.542-32.512 102.313-.213.67 252.637 24.557 6.068 156.68-304.617-36.748-.322 1.01-69.697 219.338-.508 1.596 384.663 60.513 16.543 427.05-519.674-114.746-.982 3.093-246.206 774.81-2.26 7.112 806.42 292.576 146.74 3787.984L11843.3 4527.168 9150.116-2154.518l1465.925 531.85 6419.794 16498.993v3723.95L12248.668-1044.943l-1635.352-591.126-1201.926-1563.92 716.923 158.685-719.37-677.303-450.503-70.75-233.57-303.917 328.252 39.654-216.29-203.643-257.185-24.97-97.103-126.347 211.716 17.085-103.137-97.105-179.52-12.285-45.512-59.22"/>
      <path fill="#121B3E" d="M8366.09-4560.105l159.313 9.628 65.72 61.878 103.138 97.106 142.57 134.232 216.292 203.644 355.82 335.013 719.37 677.303 2120.356 1996.36 4787.166 19645.22v-3723.95L11843.3 4527.168 8220.278 1242.876 6473.602-340.497 5424.73-1291.31l-685.478-621.385-492.916-446.832-365.14-331 1458.086-846.59 706.66-410.3 403.94-234.537 266.65-154.822 185.548-107.732 139.267-80.86 106.136-61.625 72.94-42.35 140.61 8.497 146.164 8.833 155.26 9.383 162.374 9.812 170.85 10.325 179.12 10.825 191.29 11.563m186.053-1.023l-1343.215-78.89-3914.014 2184.014-15972.877-11711.72h-3054.203l28493.71 13308.17-2429.884-2136.74-799.38-702.942-390.874-343.717-236.155-207.666-155.07-136.362-111.89-98.39-83.17-73.138-2.977-2.618"/>
    </g>
  </g>
  <g>
    <g opacity=".2">
      <g fill="#6800B2">
        <path d="M42.834 67.275h22v21h-22zM64.834 45.275h21v22h-21zM127.834 67.275h22v21h-22zM42.834 24.275h22v21h-22zM-.166 24.275h22v21h-22zM-.166 67.275h22v21h-22zM21.834 45.275h21v22h-21zM21.834 2.275h21v22h-21zM106.834 88.275h21v21h-21zM64.834 88.275h21v21h-21zM127.834 109.275h22v21h-22zM105.834 130.275h22v21h-22zM42.834 109.275h22v21h-22zM149.834 88.275h21v21h-21zM21.834 88.275h21v21h-21z"/>
      </g>
      <g fill="#AC3AFF">
        <path d="M106.834 67.275h21v21h-21zM85.834 45.275h21v22h-21zM64.834 67.275h21v21h-21zM106.834 24.275h21v21h-21zM127.834 45.275h22v22h-22zM127.834 2.275h22v22h-22zM21.834 24.275h21v21h-21zM85.834 88.275h21v21h-21zM42.834 88.275h22v21h-22zM42.834 130.275h22v21h-22zM-.166 130.275h22v21h-22zM21.834 109.275h21v21h-21z"/>
      </g>
    </g>
    <g fill="#6800B2">
      <path d="M44.834 65.275h22v21h-22zM66.834 43.275h21v22h-21zM129.834 65.275h22v21h-22zM44.834 22.275h22v21h-22zM1.834 22.275h22v21h-22zM1.834 65.275h22v21h-22zM23.834 43.275h21v22h-21zM23.834.275h21v22h-21zM108.834 86.275h21v21h-21zM66.834 86.275h21v21h-21zM129.834 107.275h22v21h-22zM107.834 128.275h22v21h-22zM44.834 107.275h22v21h-22zM151.834 86.275h21v21h-21zM23.834 86.275h21v21h-21z"/>
    </g>
    <g fill="#AC3AFF">
      <path d="M108.834 65.275h21v21h-21zM87.834 43.275h21v22h-21zM66.834 65.275h21v21h-21zM108.834 22.275h21v21h-21zM129.834 43.275h22v22h-22zM129.834.275h22v22h-22zM23.834 22.275h21v21h-21zM87.834 86.275h21v21h-21zM44.834 86.275h22v21h-22zM44.834 128.275h22v21h-22zM1.834 128.275h22v21h-22zM23.834 107.275h21v21h-21z"/>
    </g>
    <path fill="#FF2788" stroke="#531887" stroke-width="6" stroke-miterlimit="10" d="M128.838 70.795L53.736 24.27c-5.473-3.593-9.95-.95-9.95 5.87v90.318c0 6.815 4.477 9.456 9.95 5.87L128.838 79.8s2.668-1.877 2.668-4.5c0-2.627-2.668-4.505-2.668-4.505z"/>
  </g>
</svg>
